Fixed-Medium.sfdir
StartChar: exclam
Encoding: 33 33 1
Width: 500
Flags: MW
LayerCount: 2
Back
Fore
SplineSet
175 63 m 0
 175 72 188 81 204 95 c 0
 217 107 230 133 249 133 c 0
 258 133 263 124 272 115 c 0
 306 79 325 79 325 62 c 0
 325 45 298 33 287 22 c 0
 275 10 264 -13 250 -13 c 0
 241 -13 218 8 208 21 c 0
 199 33 175 45 175 63 c 0
205 651 m 0
 205 675 224 689 254 689 c 0
 283 689 300 683 300 657 c 0
 300 650 298 642 295 618 c 0
 283 520 286 420 260 210 c 0
 259 203 256 199 246 199 c 0
 238 199 234 202 234 208 c 0
 209 506 218 447 214 507 c 0
 209 577 205 605 205 651 c 0
EndSplineSet
EndChar
StartChar: quotedbl
Encoding: 34 34 2
Width: 500
Flags: MW
LayerCount: 2
Back
Fore
SplineSet
85 649 m 0
 85 657 98 668 112 682 c 0
 124 694 134 713 152 713 c 0
 160 713 219 683 219 601 c 0
 219 479 131 427 111 427 c 0
 103 427 98 436 98 439 c 0
 98 458 154 466 154 541 c 0
 154 621 85 613 85 649 c 0
280 649 m 0
 280 657 293 668 307 682 c 0
 319 694 329 713 347 713 c 0
 355 713 415 683 415 601 c 0
 415 479 326 427 306 427 c 0
 298 427 293 436 293 439 c 0
 293 458 349 466 349 541 c 0
 349 621 280 613 280 649 c 0
EndSplineSet
EndChar
StartChar: numbersign
Encoding: 35 35 3
Width: 500
Flags: MW
LayerCount: 2
Back
Fore
SplineSet
42 139 m 2
 42 142 l 2
 42 156 42 163 56 163 c 2
 138 163 l 2
 140 163 141 163 141 165 c 0
 147 210 160 295 160 300 c 0
 160 304 157 305 153 305 c 2
 58 305 l 2
 48 305 42 307 42 325 c 0
 42 339 45 347 58 347 c 2
 160 347 l 2
 166 347 169 349 169 354 c 0
 195 540 192 538 195 543 c 0
 199 549 203 550 217 550 c 0
 224 550 237 549 237 538 c 0
 237 532 211 358 211 352 c 0
 211 348 212 347 217 347 c 2
 315 347 l 2
 319 347 323 348 324 354 c 0
 350 540 349 540 352 544 c 0
 356 550 363 550 375 550 c 0
 383 550 391 550 391 540 c 0
 391 531 366 361 366 352 c 0
 366 349 367 347 371 347 c 2
 440 347 l 2
 454 347 458 339 458 322 c 0
 458 307 452 305 443 305 c 2
 362 305 l 2
 358 305 358 302 357 299 c 0
 351 256 339 173 339 169 c 0
 339 165 341 163 346 163 c 2
 441 163 l 2
 451 163 458 161 458 143 c 0
 458 128 454 121 441 121 c 2
 343 121 l 2
 334 121 333 117 332 111 c 0
 307 -66 314 -66 286 -66 c 0
 272 -66 267 -60 267 -53 c 0
 267 -47 290 110 290 115 c 0
 290 120 287 121 283 121 c 2
 217 121 l 2
 178 121 177 119 176 113 c 0
 153 -58 153 -55 152 -58 c 0
 148 -64 143 -66 129 -66 c 0
 120 -66 111 -63 111 -53 c 0
 111 -47 134 109 134 114 c 0
 134 119 132 121 126 121 c 2
 56 121 l 2
 43 121 42 129 42 139 c 2
184 168 m 0
 184 164 187 163 192 163 c 2
 287 163 l 2
 291 163 296 163 297 170 c 0
 310 265 315 292 315 300 c 0
 315 303 315 305 309 305 c 2
 211 305 l 2
 205 305 203 302 202 298 c 0
 196 255 184 173 184 168 c 0
EndSplineSet
EndChar
StartChar: dollar
Encoding: 36 36 4
Width: 500
Flags: MW
LayerCount: 2
Back
Fore
SplineSet
38 96 m 0
 38 98 41 166 61 166 c 0
 82 166 87 137 108 98 c 0
 129 60 180 27 218 27 c 0
 227 27 228 33 228 42 c 0
 228 168 231 207 231 324 c 0
 231 337 211 344 195 349 c 0
 134 369 61 407 61 513 c 0
 61 611 141 682 226 693 c 0
 234 694 239 696 239 716 c 0
 239 728 238 732 238 743 c 0
 238 760 244 766 260 766 c 0
 281 766 282 760 282 748 c 0
 282 721 281 707 281 703 c 0
 281 698 282 694 286 694 c 0
 401 680 431 614 431 607 c 0
 431 589 414 543 401 543 c 0
 394 543 390 549 388 554 c 0
 368 597 325 652 286 652 c 0
 277 652 277 641 277 633 c 0
 277 486 272 499 272 437 c 0
 272 416 273 412 285 409 c 0
 403 376 462 317 462 208 c 0
 462 67 359 12 287 -7 c 0
 268 -12 266 -10 266 -26 c 2
 266 -45 l 1
 266 -108 l 2
 266 -146 261 -150 244 -150 c 0
 225 -150 223 -140 223 -129 c 0
 223 -96 226 -55 226 -31 c 0
 226 -25 226 -12 220 -12 c 0
 155 -12 77 26 49 60 c 0
 39 72 38 83 38 96 c 0
120 539 m 0
 120 480 160 445 225 428 c 1
 227 428 l 2
 235 428 236 439 236 445 c 0
 236 532 237 557 237 641 c 0
 237 648 232 653 226 653 c 0
 205 653 120 621 120 539 c 0
267 40 m 0
 267 31 269 27 274 27 c 0
 280 27 402 40 402 185 c 0
 402 294 281 320 278 320 c 0
 273 320 271 315 271 306 c 0
 271 200 267 146 267 40 c 0
EndSplineSet
EndChar
StartChar: percent
Encoding: 37 37 5
Width: 500
Flags: MW
LayerCount: 2
Back
Fore
SplineSet
30 343 m 0
 30 440 84 577 167 577 c 0
 219 577 228 520 271 520 c 0
 327 520 399 610 418 638 c 0
 422 644 427 646 430 646 c 0
 435 646 441 634 441 629 c 0
 441 622 433 597 431 592 c 0
 194 20 136 -86 128 -90 c 0
 126 -91 123 -92 121 -92 c 0
 110 -92 100 -79 100 -68 c 0
 100 -54 105 -43 126 2 c 2
 236 239 l 2
 321 423 355 504 355 512 c 0
 355 515 353 517 352 517 c 0
 347 517 326 483 283 483 c 0
 266 483 252 488 249 488 c 0
 248 488 249 488 249 487 c 0
 249 485 250 483 250 473 c 0
 250 400 242 361 212 299 c 0
 195 265 166 219 109 219 c 0
 83 219 30 255 30 343 c 0
102 364 m 0
 102 291 113 247 132 247 c 0
 166 247 184 363 184 455 c 0
 184 507 175 547 161 547 c 0
 121 547 102 449 102 364 c 0
260 63 m 0
 260 167 313 293 404 293 c 0
 459 293 482 238 482 170 c 0
 482 62 424 -79 348 -79 c 0
 289 -79 260 -13 260 63 c 0
332 73 m 0
 332 0 343 -46 362 -46 c 0
 394 -46 416 72 416 164 c 0
 416 216 406 261 391 261 c 0
 351 261 332 158 332 73 c 0
EndSplineSet
EndChar
StartChar: ampersand
Encoding: 38 38 6
Width: 500
Flags: MW
LayerCount: 2
Back
Fore
SplineSet
21 242 m 0
 21 287 34 342 53 371 c 0
 97 437 136 432 136 440 c 0
 136 452 104 484 104 571 c 0
 104 667 155 704 195 704 c 0
 224 704 236 681 245 681 c 0
 249 681 251 684 255 684 c 0
 262 684 263 672 263 661 c 0
 263 658 265 615 265 593 c 0
 265 553 265 552 261 552 c 0
 254 552 237 667 206 667 c 0
 181 667 174 619 174 590 c 0
 174 537 213 453 251 374 c 0
 300 271 338 199 344 199 c 0
 350 199 369 232 369 263 c 0
 369 342 367 353 344 366 c 0
 327 375 310 366 310 384 c 0
 310 394 313 395 327 395 c 0
 366 395 336 393 424 393 c 0
 432 393 436 388 436 380 c 0
 436 359 399 377 397 324 c 0
 396 298 395 263 394 245 c 0
 392 201 372 160 372 151 c 0
 372 138 418 73 445 35 c 0
 452 25 457 25 460 25 c 0
 465 25 469 28 472 28 c 0
 475 28 477 24 477 19 c 0
 477 -3 454 -19 427 -19 c 0
 356 -19 325 69 320 69 c 0
 310 69 275 -22 175 -22 c 0
 132 -22 21 5 21 242 c 0
87 276 m 0
 87 189 125 45 216 45 c 0
 259 45 292 100 292 109 c 0
 292 119 251 172 186 316 c 0
 145 407 150 405 145 405 c 0
 129 405 87 366 87 276 c 0
EndSplineSet
EndChar
StartChar: parenleft
Encoding: 40 40 8
Width: 500
Flags: MW
LayerCount: 2
Back
Fore
SplineSet
238 278 m 0
 238 593 439 772 460 772 c 0
 478 772 481 762 481 751 c 0
 481 722 283 623 283 277 c 0
 283 -41 478 -168 478 -195 c 0
 478 -208 464 -214 458 -214 c 0
 425 -214 238 0 238 278 c 0
EndSplineSet
EndChar
StartChar: asterisk
Encoding: 42 42 10
Width: 500
Flags: MW
LayerCount: 2
Back
Fore
SplineSet
93 383 m 0
 93 405 201 438 201 447 c 0
 201 458 93 492 93 513 c 0
 93 522 105 548 125 548 c 0
 141 548 207 495 216 495 c 0
 219 495 221 500 221 514 c 0
 221 535 218 567 218 593 c 0
 218 610 223 614 244 614 c 0
 274 614 281 612 281 578 c 0
 281 560 277 533 277 513 c 0
 277 499 279 495 282 495 c 0
 293 495 362 549 374 549 c 0
 392 549 407 526 407 514 c 0
 407 493 298 458 298 448 c 0
 298 436 407 404 407 383 c 0
 407 373 394 348 373 348 c 0
 358 348 290 401 283 401 c 0
 279 401 278 396 278 382 c 0
 278 363 281 339 281 324 c 0
 281 286 278 282 245 282 c 0
 230 282 218 285 218 306 c 0
 218 324 221 355 221 378 c 0
 221 395 220 401 216 401 c 0
 207 401 137 348 125 348 c 0
 106 348 93 373 93 383 c 0
EndSplineSet
EndChar
StartChar: plus
Encoding: 43 43 11
Width: 500
Flags: MW
LayerCount: 2
Back
Fore
SplineSet
18 212 m 0
 18 225 18 232 36 232 c 2
 206 232 l 2
 225 232 228 240 228 251 c 2
 228 427 l 2
 228 442 235 442 249 442 c 0
 263 442 273 442 273 422 c 2
 273 259 l 2
 273 245 274 232 290 232 c 2
 467 232 l 2
 483 232 483 225 483 211 c 0
 483 194 483 188 462 188 c 2
 290 188 l 2
 273 188 273 182 273 170 c 2
 273 -5 l 2
 273 -22 264 -22 253 -22 c 0
 233 -22 228 -22 228 -4 c 2
 228 170 l 2
 228 188 221 188 204 188 c 2
 35 188 l 2
 17 188 18 195 18 212 c 0
EndSplineSet
EndChar
StartChar: hyphen
Encoding: 45 45 13
Width: 500
Flags: MW
LayerCount: 2
Back
Fore
SplineSet
124 145 m 2
 124 156 l 2
 124 198 136 199 181 212 c 0
 309 250 332 268 354 268 c 0
 372 268 376 252 376 234 c 2
 376 228 l 2
 376 189 366 196 279 168 c 0
 188 138 164 124 140 124 c 0
 125 124 124 133 124 145 c 2
EndSplineSet
EndChar
StartChar: slash
Encoding: 47 47 15
Width: 500
Flags: MW
LayerCount: 2
Back
Fore
SplineSet
62 -170 m 0
 62 -161 73 -136 81 -113 c 2
 81 -113 386 710 388 717 c 0
 393 732 399 735 417 735 c 0
 426 735 438 733 438 723 c 0
 438 714 429 692 424 679 c 2
 120 -152 l 2
 109 -183 103 -183 88 -183 c 0
 76 -183 62 -183 62 -170 c 0
EndSplineSet
EndChar
StartChar: one
Encoding: 49 49 17
Width: 500
Flags: MW
LayerCount: 2
Back
Fore
SplineSet
136 611 m 0
 136 622 148 631 165 638 c 0
 194 650 203 644 256 672 c 0
 291 691 307 720 322 720 c 0
 337 720 338 705 338 697 c 0
 338 689 329 657 329 646 c 0
 327 604 323 517 323 314 c 0
 323 213 320 154 320 118 c 0
 320 -16 438 59 438 15 c 0
 438 2 422 1 405 1 c 2
 287 1 l 2
 245 1 198 -2 171 -2 c 0
 153 -2 143 2 143 14 c 0
 143 29 159 33 175 33 c 2
 186 33 l 2
 237 33 237 68 237 73 c 0
 245 135 248 245 248 346 c 2
 248 549 l 2
 248 586 244 611 214 611 c 0
 187 611 159 596 147 596 c 0
 145 596 136 600 136 611 c 0
EndSplineSet
EndChar
StartChar: colon
Encoding: 58 58 26
Width: 500
Flags: MW
LayerCount: 2
Back
Fore
SplineSet
178 55 m 0
 178 64 198 80 214 94 c 0
 227 106 237 127 256 127 c 0
 264 127 276 109 292 90 c 0
 301 80 321 65 321 55 c 0
 321 43 301 33 286 19 c 0
 274 7 264 -16 250 -16 c 0
 234 -16 221 11 208 21 c 0
 191 33 178 45 178 55 c 0
186 336 m 0
 186 345 201 360 216 373 c 0
 229 384 236 406 254 406 c 0
 262 406 280 382 290 369 c 0
 298 359 316 349 316 335 c 0
 316 324 300 314 286 301 c 0
 274 290 266 268 250 268 c 0
 234 268 225 294 216 303 c 0
 202 317 186 327 186 336 c 0
EndSplineSet
EndChar
StartChar: semicolon
Encoding: 59 59 27
Width: 500
Flags: MW
LayerCount: 2
Back
Fore
SplineSet
178 342 m 0
 178 351 193 366 208 379 c 0
 221 390 225 413 246 413 c 0
 254 413 274 388 284 375 c 0
 292 365 312 354 312 340 c 0
 312 329 296 319 282 306 c 0
 270 295 260 273 244 273 c 0
 228 273 217 300 208 309 c 0
 194 323 178 333 178 342 c 0
180 54 m 0
 180 68 197 78 212 93 c 0
 224 105 229 125 252 125 c 0
 257 125 322 87 322 0 c 0
 322 -94 231 -168 204 -168 c 0
 200 -168 192 -161 192 -153 c 0
 192 -132 252 -117 252 -48 c 0
 252 -10 230 9 198 33 c 0
 181 45 180 44 180 54 c 0
EndSplineSet
EndChar
StartChar: less
Encoding: 60 60 28
Width: 500
Flags: MW
LayerCount: 2
Back
Fore
SplineSet
27 211 m 0
 27 221 27 225 42 231 c 0
 449 379 448 381 454 381 c 0
 463 381 473 377 473 356 c 0
 473 347 465 342 457 340 c 2
 152 229 l 2
 133 222 110 213 110 208 c 0
 110 203 132 197 152 190 c 2
 462 78 l 2
 468 76 473 72 473 65 c 0
 473 57 467 41 449 41 c 0
 443 41 446 41 41 188 c 0
 27 193 27 197 27 211 c 0
EndSplineSet
EndChar
StartChar: equal
Encoding: 61 61 29
Width: 500
Flags: MW
LayerCount: 2
Back
Fore
SplineSet
18 114 m 0
 18 127 18 135 36 135 c 2
 467 135 l 2
 483 135 483 128 483 114 c 0
 483 97 483 90 462 90 c 2
 35 90 l 2
 17 90 18 97 18 114 c 0
18 310 m 0
 18 323 18 330 36 330 c 2
 467 330 l 2
 483 330 483 323 483 309 c 0
 483 292 483 286 462 286 c 2
 35 286 l 2
 17 286 18 293 18 310 c 0
EndSplineSet
EndChar
StartChar: greater
Encoding: 62 62 30
Width: 500
Flags: MW
LayerCount: 2
Back
Fore
SplineSet
27 65 m 0
 27 72 31 76 37 78 c 2
 348 190 l 2
 368 197 390 203 390 208 c 0
 390 213 367 222 348 229 c 2
 42 340 l 2
 34 342 27 347 27 356 c 0
 27 377 36 381 45 381 c 0
 51 381 50 379 457 231 c 0
 472 225 473 221 473 211 c 0
 473 197 472 193 458 188 c 0
 53 41 56 41 50 41 c 0
 32 41 27 57 27 65 c 0
EndSplineSet
EndChar
StartChar: question
Encoding: 63 63 31
Width: 500
Flags: MW
LayerCount: 2
Back
Fore
SplineSet
131 612 m 0
 131 631 176 673 235 673 c 0
 301 673 369 635 369 559 c 0
 369 461 229 357 229 251 c 0
 229 232 234 215 234 205 c 0
 234 199 232 195 226 195 c 0
 204 195 194 252 194 274 c 0
 194 345 286 485 286 548 c 0
 286 607 220 628 195 628 c 0
 165 628 148 603 140 603 c 0
 134 603 131 609 131 612 c 0
153 59 m 0
 153 68 174 87 189 100 c 0
 202 112 214 132 228 132 c 0
 238 132 259 101 263 97 c 0
 267 93 297 72 297 62 c 0
 297 45 274 37 263 26 c 0
 251 14 239 -9 226 -9 c 0
 217 -9 196 11 186 24 c 0
 177 36 153 45 153 59 c 0
EndSplineSet
EndChar
StartChar: at
Encoding: 64 64 32
Width: 500
Flags: MW
LayerCount: 2
Back
Fore
SplineSet
24 285 m 0
 24 624 208 697 282 697 c 0
 398 697 476 558 476 391 c 0
 476 243 411 128 340 128 c 0
 247 128 295 209 290 209 c 0
 285 209 250 111 196 111 c 0
 157 111 142 152 142 208 c 0
 142 321 205 488 278 488 c 0
 297 488 317 479 322 479 c 0
 331 479 334 519 346 519 c 0
 351 519 352 509 352 500 c 0
 352 487 326 320 326 246 c 2
 326 233 l 2
 326 203 333 174 348 174 c 0
 396 174 434 246 434 397 c 0
 434 568 366 658 284 658 c 0
 175 658 84 516 84 297 c 0
 84 109 157 -27 264 -27 c 0
 344 -27 379 38 386 38 c 0
 389 38 392 35 392 26 c 0
 392 8 333 -65 242 -65 c 0
 116 -65 24 62 24 285 c 0
208 227 m 0
 208 185 223 167 240 167 c 0
 262 167 280 203 284 215 c 0
 290 231 292 238 298 281 c 0
 305 334 318 432 318 435 c 0
 318 443 298 455 286 455 c 0
 259 455 208 373 208 227 c 0
EndSplineSet
EndChar
StartChar: B
Encoding: 66 66 34
Width: 500
Flags: MW
LayerCount: 2
Back
Fore
SplineSet
13 694 m 0
 13 700 15 709 20 709 c 0
 28 709 28 708 52 708 c 0
 81 708 154 709 168 709 c 0
 202 709 227 712 255 712 c 0
 345 712 424 656 424 545 c 0
 424 440 331 402 331 396 c 0
 331 384 487 379 487 208 c 0
 487 151 455 75 418 44 c 0
 367 1 331 -8 275 -8 c 0
 218 -8 149 3 128 3 c 0
 108 3 86 -1 58 -1 c 2
 46 -1 l 2
 38 -1 29 1 29 14 c 0
 29 18 30 28 37 28 c 0
 45 28 48 29 53 29 c 0
 63 29 82 46 84 122 c 0
 87 187 87 322 87 434 c 2
 87 604 l 2
 87 613 83 682 25 682 c 0
 21 682 13 682 13 694 c 0
163 92 m 0
 163 35 210 32 237 32 c 2
 255 32 l 2
 278 32 300 33 320 37 c 0
 367 47 402 108 402 184 c 0
 402 356 278 364 253 364 c 0
 183 364 190 366 183 366 c 0
 167 366 164 364 164 204 c 2
 164 196 l 2
 164 113 163 102 163 92 c 0
169 545 m 2
 169 413 171 402 178 401 c 0
 191 399 194 398 214 398 c 2
 259 398 l 2
 321 398 347 452 347 516 c 0
 347 576 306 677 205 677 c 0
 178 677 169 665 169 574 c 2
 169 545 l 2
EndSplineSet
EndChar
StartChar: C
Encoding: 67 67 35
Width: 500
Flags: MW
LayerCount: 2
Back
Fore
SplineSet
24 323 m 0
 24 536 110 714 272 714 c 0
 362 714 436 640 442 640 c 0
 447 640 451 650 456 650 c 0
 460 650 466 645 466 634 c 0
 467 568 474 506 474 494 c 0
 474 478 470 476 468 476 c 0
 464 476 460 483 458 490 c 0
 423 599 366 672 288 672 c 0
 189 672 118 556 118 383 c 0
 118 202 172 26 318 26 c 0
 392 26 438 115 462 176 c 0
 464 183 468 183 472 183 c 0
 476 183 476 176 476 169 c 0
 476 145 469 91 466 70 c 0
 465 61 459 56 454 52 c 0
 397 10 354 -21 286 -21 c 0
 88 -21 24 166 24 323 c 0
EndSplineSet
EndChar
StartChar: D
Encoding: 68 68 36
Width: 500
Flags: MW
LayerCount: 2
Back
Fore
SplineSet
12 700 m 0
 12 712 18 712 45 712 c 2
 102 712 l 2
 137 712 186 716 230 716 c 0
 348 716 488 606 488 390 c 0
 488 196 450 134 393 62 c 0
 371 35 317 -4 259 -4 c 0
 243 -4 149 1 102 1 c 0
 63 1 49 -4 36 -4 c 0
 22 -4 20 1 20 9 c 0
 20 27 28 25 39 33 c 0
 51 42 63 72 63 98 c 0
 63 204 64 282 64 368 c 0
 64 449 63 502 63 622 c 0
 63 644 49 673 34 675 c 0
 22 676 12 677 12 700 c 0
147 141 m 0
 147 55 153 67 197 44 c 0
 209 38 223 34 237 34 c 2
 248 34 l 2
 299 34 331 60 362 115 c 0
 393 169 403 267 403 345 c 0
 403 569 301 672 216 672 c 0
 151 672 150 671 150 545 c 0
 150 506 148 372 148 353 c 0
 148 249 147 183 147 141 c 0
EndSplineSet
EndChar
StartChar: E
Encoding: 69 69 37
Width: 500
Flags: MW
LayerCount: 2
Back
Fore
SplineSet
10 699 m 0
 10 711 27 713 34 713 c 0
 41 713 48 711 57 711 c 0
 78 711 181 706 266 706 c 0
 300 706 411 710 437 710 c 0
 443 710 454 708 454 687 c 0
 454 667 444 634 444 584 c 0
 444 572 436 562 428 562 c 0
 420 562 413 569 413 583 c 0
 413 618 393 653 365 655 c 0
 313 660 297 662 252 662 c 2
 230 662 l 2
 173 662 174 661 172 601 c 0
 170 565 168 481 168 435 c 0
 168 417 169 385 183 384 c 2
 203 384 l 1
 237 384 l 1
 262 384 l 2
 331 384 340 390 355 403 c 0
 369 415 372 429 374 440 c 0
 376 450 378 457 388 457 c 0
 400 457 401 453 401 441 c 0
 401 423 393 370 393 335 c 0
 393 301 396 293 396 274 c 0
 396 250 392 249 389 249 c 0
 377 249 371 259 367 273 c 0
 362 291 359 312 347 322 c 0
 330 336 273 336 270 336 c 0
 200 336 209 337 200 337 c 0
 183 337 167 334 167 318 c 0
 167 261 165 231 165 175 c 2
 165 135 l 2
 165 102 171 61 185 56 c 0
 203 49 209 48 221 48 c 0
 540 48 456 143 480 143 c 0
 485 143 490 138 490 126 c 0
 490 66 423 -6 389 -6 c 0
 280 -6 207 4 155 4 c 0
 108 4 81 -5 39 -5 c 0
 30 -5 21 -6 21 5 c 0
 21 32 22 16 56 36 c 0
 81 51 87 77 87 230 c 2
 87 354 l 2
 87 409 90 466 90 528 c 0
 90 557 89 587 88 619 c 0
 86 661 54 680 23 681 c 0
 10 681 10 690 10 699 c 0
EndSplineSet
EndChar
StartChar: F
Encoding: 70 70 38
Width: 500
Flags: MW
LayerCount: 2
Back
Fore
SplineSet
28 697 m 0
 28 700 30 714 50 714 c 2
 74 714 l 2
 133 714 132 708 262 708 c 0
 377 708 370 713 456 713 c 0
 462 713 472 710 472 689 c 0
 472 669 464 638 458 587 c 0
 457 575 450 567 442 567 c 0
 434 567 428 573 428 587 c 0
 428 622 418 654 390 656 c 0
 318 663 272 668 242 668 c 0
 173 668 190 651 188 604 c 0
 186 568 184 483 184 437 c 0
 184 419 184 388 198 387 c 0
 205 387 212 386 218 386 c 0
 230 386 241 387 254 387 c 2
 278 387 l 2
 347 387 355 392 370 405 c 0
 375 409 380 414 382 419 c 0
 395 439 386 459 406 459 c 0
 418 459 418 455 418 443 c 0
 418 425 410 395 410 360 c 0
 410 326 416 297 416 278 c 0
 416 254 410 253 402 253 c 0
 387 253 384 264 382 278 c 0
 380 296 379 318 364 326 c 0
 346 336 289 340 286 340 c 2
 216 340 l 2
 199 340 184 337 184 321 c 0
 184 264 182 233 182 177 c 0
 182 163 180 150 180 137 c 0
 180 111 188 33 246 33 c 0
 265 33 270 22 270 15 c 0
 270 10 264 -4 242 -4 c 0
 215 -4 182 4 160 4 c 0
 113 4 98 -2 56 -2 c 0
 47 -2 38 -2 38 9 c 0
 38 27 39 25 72 40 c 0
 115 55 102 121 104 357 c 0
 104 412 106 469 106 531 c 2
 106 589 l 2
 106 621 103 657 68 677 c 0
 50 688 28 676 28 697 c 0
EndSplineSet
EndChar
StartChar: G
Encoding: 71 71 39
Width: 500
Flags: MW
LayerCount: 2
Back
Fore
SplineSet
16 328 m 0
 16 541 101 719 262 719 c 0
 369 719 412 647 418 647 c 0
 422 647 431 662 436 662 c 0
 442 662 446 653 446 642 c 0
 448 576 460 516 460 504 c 0
 460 488 452 487 448 487 c 0
 442 487 433 492 430 499 c 0
 404 600 337 679 272 679 c 0
 183 679 110 574 110 383 c 0
 110 202 164 24 258 24 c 0
 310 24 358 79 362 139 c 0
 363 147 366 223 366 264 c 0
 366 293 361 310 356 320 c 0
 350 332 342 334 334 336 c 0
 324 338 316 338 316 359 c 0
 316 365 318 370 328 370 c 0
 345 370 389 365 406 365 c 0
 438 365 470 366 472 366 c 0
 475 366 484 365 484 357 c 0
 484 341 457 341 454 311 c 0
 449 280 446 241 446 198 c 0
 446 109 452 97 452 86 c 0
 452 74 434 78 412 59 c 0
 404 52 340 -18 270 -18 c 0
 79 -18 16 157 16 328 c 0
EndSplineSet
EndChar
StartChar: H
Encoding: 72 72 40
Width: 500
Flags: MW
LayerCount: 2
Back
Fore
SplineSet
9 699 m 0
 9 710 19 710 28 710 c 0
 47 710 67 706 105 706 c 0
 134 706 123 708 166 708 c 0
 171 708 181 707 181 694 c 0
 181 685 179 677 162 677 c 0
 146 677 142 591 142 552 c 2
 142 515 l 2
 142 472 140 443 140 423 c 0
 140 389 143 384 159 384 c 0
 177 384 167 385 248 385 c 0
 260 385 281 384 352 383 c 0
 357 383 358 389 358 522 c 2
 358 576 l 2
 358 716 312 657 312 696 c 0
 312 704 322 706 339 706 c 0
 356 706 380 704 407 704 c 0
 424 704 437 706 462 706 c 0
 468 706 478 703 478 693 c 0
 478 680 472 680 470 680 c 0
 449 680 440 653 440 618 c 0
 439 522 437 451 437 375 c 0
 437 327 435 279 435 225 c 2
 435 188 l 2
 435 134 439 124 439 96 c 0
 439 37 469 25 484 22 c 0
 486 22 491 21 491 11 c 0
 491 1 482 0 457 0 c 0
 441 0 424 5 404 5 c 0
 378 5 371 0 339 0 c 0
 321 0 315 0 315 13 c 0
 315 32 347 27 351 65 c 0
 354 91 355 116 355 138 c 0
 355 158 356 176 356 192 c 0
 356 229 358 270 358 315 c 0
 358 333 354 342 324 342 c 0
 310 342 260 339 257 339 c 0
 212 339 192 342 157 342 c 0
 147 342 143 340 143 305 c 0
 143 257 139 221 139 182 c 2
 139 139 l 2
 139 88 141 62 165 34 c 0
 168 31 176 29 188 29 c 0
 193 29 199 23 199 18 c 0
 199 2 188 0 177 0 c 0
 141 0 143 4 121 4 c 0
 86 4 72 -1 48 -1 c 0
 20 -1 17 6 17 14 c 0
 17 41 50 13 58 78 c 0
 60 94 65 227 65 345 c 2
 65 402 l 2
 65 431 66 469 66 510 c 0
 66 551 66 593 63 629 c 0
 60 665 37 682 21 682 c 0
 12 682 9 696 9 699 c 0
EndSplineSet
EndChar
StartChar: I
Encoding: 73 73 41
Width: 500
Flags: MW
LayerCount: 2
Back
Fore
SplineSet
106 695 m 0
 106 702 110 710 134 710 c 0
 162 710 190 706 246 706 c 0
 289 706 271 708 334 708 c 0
 341 708 362 707 362 694 c 0
 362 685 345 679 316 667 c 0
 288 656 284 591 284 552 c 0
 284 317 280 274 280 182 c 0
 280 121 287 89 306 61 c 0
 327 32 344 30 354 30 c 0
 357 30 371 29 374 29 c 0
 384 29 394 23 394 18 c 0
 394 2 387 0 370 0 c 0
 316 0 307 4 274 4 c 0
 222 4 200 -1 164 -1 c 0
 123 -1 120 6 120 14 c 0
 120 41 179 13 194 78 c 0
 196 86 204 277 204 345 c 2
 204 402 l 2
 204 431 206 469 206 510 c 2
 206 556 l 2
 206 582 205 607 202 629 c 0
 197 665 154 679 126 680 c 0
 106 681 106 690 106 695 c 0
EndSplineSet
EndChar
StartChar: J
Encoding: 74 74 42
Width: 500
Flags: MW
LayerCount: 2
Back
Fore
SplineSet
57 -154 m 0
 57 -134 77 -99 88 -99 c 0
 105 -99 109 -133 146 -133 c 0
 186 -133 207 -100 215 -55 c 0
 224 -8 228 33 228 66 c 0
 228 90 227 187 227 189 c 0
 227 257 224 188 224 530 c 0
 224 567 223 603 220 629 c 0
 216 664 172 677 144 678 c 0
 124 679 122 691 122 696 c 0
 122 705 127 713 151 713 c 0
 179 713 208 707 264 707 c 0
 307 707 282 708 345 708 c 0
 352 708 373 708 373 695 c 0
 373 686 356 679 327 667 c 0
 308 660 306 630 306 599 c 2
 306 553 l 2
 306 69 304 117 304 69 c 0
 304 -87 205 -192 97 -192 c 0
 82 -192 57 -190 57 -154 c 0
EndSplineSet
EndChar
StartChar: K
Encoding: 75 75 43
Width: 500
Flags: MW
LayerCount: 2
Back
Fore
SplineSet
12 695 m 0
 12 702 16 708 32 708 c 0
 51 708 69 706 106 706 c 0
 135 706 118 708 164 708 c 0
 169 708 174 707 174 695 c 0
 174 685 166 683 158 674 c 0
 145 659 142 591 142 552 c 0
 142 462 138 417 138 396 c 0
 138 378 140 375 144 375 c 0
 150 375 332 607 332 655 c 0
 332 677 317 679 308 683 c 0
 303 685 302 694 302 697 c 0
 302 708 310 708 316 708 c 0
 321 708 328 707 338 707 c 0
 346 707 367 705 390 705 c 0
 394 705 460 708 460 708 c 2
 472 709 478 705 478 695 c 0
 478 679 462 680 436 666 c 0
 425 660 398 650 382 636 c 0
 369 625 348 573 222 419 c 0
 217 412 214 405 214 405 c 2
 214 399 218 394 222 389 c 0
 427 107 420 41 464 32 c 0
 479 29 488 28 488 14 c 0
 488 2 486 1 448 1 c 2
 366 1 l 2
 348 1 370 4 312 91 c 0
 156 323 161 324 150 324 c 0
 142 324 140 309 140 297 c 0
 140 295 142 276 142 220 c 0
 142 159 142 89 150 62 c 0
 159 31 177 30 182 30 c 0
 184 30 184 29 186 29 c 0
 191 29 198 23 198 18 c 0
 198 2 192 0 180 0 c 0
 142 0 135 4 112 4 c 0
 79 4 65 -1 42 -1 c 0
 25 -1 24 4 24 10 c 2
 24 14 l 2
 24 30 42 22 52 42 c 0
 63 63 62 148 62 268 c 2
 62 402 l 2
 62 431 60 469 60 510 c 2
 60 556 l 2
 60 582 61 607 60 629 c 0
 58 664 36 679 22 680 c 0
 12 681 12 690 12 695 c 0
EndSplineSet
EndChar
StartChar: L
Encoding: 76 76 44
Width: 500
Flags: MW
LayerCount: 2
Back
Fore
SplineSet
16 694 m 0
 16 709 32 713 39 713 c 0
 46 713 54 711 63 711 c 0
 84 711 103 707 138 707 c 0
 185 707 213 711 229 711 c 0
 240 711 244 709 244 701 c 0
 244 658 184 714 178 593 c 0
 175 531 170 186 170 175 c 2
 170 135 l 2
 170 102 175 61 189 56 c 0
 207 49 212 48 224 48 c 0
 543 48 451 143 474 143 c 0
 479 143 484 138 484 126 c 0
 484 66 419 -6 386 -6 c 0
 279 -6 208 4 157 4 c 0
 111 4 94 -4 53 -4 c 0
 36 -4 29 1 29 8 c 0
 29 19 38 24 42 24 c 0
 45 24 54 24 65 34 c 0
 83 51 92 77 92 230 c 2
 92 354 l 2
 92 409 95 465 95 527 c 0
 95 556 94 586 93 618 c 0
 91 660 59 679 28 680 c 0
 17 680 16 686 16 694 c 0
EndSplineSet
EndChar
StartChar: M
Encoding: 77 77 45
Width: 500
Flags: MW
LayerCount: 2
Back
Fore
SplineSet
-4 695 m 0
 -4 702 -3 710 6 710 c 0
 12 710 56 706 61 706 c 0
 77 706 94 708 105 708 c 0
 112 708 117 702 119 694 c 0
 174 490 240 248 248 248 c 0
 254 248 264 278 271 303 c 2
 311 458 l 2
 360 693 349 671 353 683 c 0
 357 696 351 710 371 710 c 0
 396 710 439 708 476 708 c 0
 480 708 486 708 486 695 c 0
 486 683 483 676 467 672 c 0
 449 668 441 650 441 563 c 0
 441 328 453 274 453 182 c 0
 453 44 462 27 495 27 c 0
 500 27 504 18 504 13 c 0
 504 -4 501 -4 489 -4 c 0
 452 -4 442 0 419 0 c 0
 383 0 373 -5 348 -5 c 0
 337 -5 336 3 336 9 c 0
 336 38 365 6 375 74 c 0
 376 84 377 108 377 138 c 0
 377 251 363 465 363 468 c 0
 363 496 360 511 358 511 c 0
 354 511 348 484 339 448 c 2
 270 167 l 2
 232 12 234 12 228 12 c 0
 218 12 215 46 201 105 c 0
 107 487 105 474 101 474 c 0
 99 474 97 464 97 434 c 0
 95 288 91 261 91 185 c 2
 91 140 l 2
 91 87 92 34 134 26 c 0
 137 26 141 20 141 15 c 0
 141 -2 139 -4 132 -4 c 0
 111 -4 77 0 69 0 c 0
 62 0 47 -3 20 -3 c 0
 12 -3 7 -2 7 13 c 0
 7 40 34 0 45 89 c 0
 49 119 55 397 55 489 c 0
 55 618 48 659 3 680 c 0
 -4 683 -4 690 -4 695 c 0
EndSplineSet
EndChar
StartChar: O
Encoding: 79 79 47
Width: 500
Flags: MW
LayerCount: 2
Back
Fore
SplineSet
16 338 m 0
 16 553 97 722 253 722 c 0
 438 722 484 494 484 392 c 0
 484 111 378 -17 244 -17 c 0
 92 -17 16 158 16 338 c 0
104 389 m 0
 104 262 150 28 263 28 c 0
 319 28 402 116 402 300 c 0
 402 552 325 681 237 681 c 0
 170 681 104 593 104 389 c 0
EndSplineSet
EndChar
StartChar: P
Encoding: 80 80 48
Width: 500
Flags: MW
LayerCount: 2
Back
Fore
SplineSet
28 694 m 0
 28 702 34 710 48 710 c 0
 57 710 54 711 80 711 c 0
 89 711 115 708 131 708 c 0
 168 708 244 711 274 711 c 0
 372 711 472 653 472 527 c 0
 472 354 331 318 286 318 c 0
 250 318 203 331 203 342 c 0
 203 353 207 357 213 357 c 0
 224 357 233 349 254 349 c 0
 297 349 387 377 387 489 c 0
 387 567 334 670 225 670 c 0
 194 670 183 658 183 568 c 0
 183 173 181 467 181 155 c 0
 181 86 196 55 214 40 c 0
 242 18 280 44 280 9 c 0
 280 -5 269 -8 260 -8 c 0
 226 -8 151 -3 138 -3 c 0
 117 -3 97 -7 59 -7 c 0
 50 -7 33 -7 33 4 c 0
 33 28 45 28 63 34 c 0
 74 38 78 31 91 78 c 0
 99 107 103 371 103 431 c 0
 103 536 102 575 102 601 c 0
 102 625 91 681 44 681 c 0
 35 681 28 684 28 694 c 0
EndSplineSet
EndChar
StartChar: Q
Encoding: 81 81 49
Width: 500
Flags: MW
LayerCount: 2
Back
Fore
SplineSet
18 339 m 0
 18 550 77 722 230 722 c 0
 390 722 429 476 429 367 c 0
 429 229 385 57 308 20 c 0
 274 3 268 1 268 -3 c 0
 268 -9 272 -17 278 -22 c 0
 319 -58 392 -127 434 -127 c 0
 468 -127 468 -94 482 -94 c 0
 485 -94 487 -103 487 -106 c 0
 487 -154 447 -195 407 -195 c 0
 339 -195 201 9 166 9 c 0
 135 9 125 -49 125 -96 c 2
 125 -114 l 2
 125 -128 122 -140 107 -140 c 0
 94 -140 83 -119 83 -98 c 0
 83 -34 108 21 127 41 c 0
 135 49 143 55 143 59 c 0
 143 62 134 70 124 78 c 0
 54 139 18 234 18 339 c 0
109 389 m 0
 109 309 119 221 140 152 c 0
 163 74 212 28 239 28 c 0
 263 28 284 48 299 66 c 0
 317 89 351 177 351 300 c 0
 351 515 291 681 218 681 c 0
 162 681 109 593 109 389 c 0
EndSplineSet
EndChar
StartChar: R
Encoding: 82 82 50
Width: 500
Flags: MW
LayerCount: 2
Back
Fore
SplineSet
12 696 m 0
 12 709 18 712 33 712 c 2
 155 712 l 2
 186 712 202 715 228 715 c 0
 311 715 387 654 387 547 c 0
 387 399 278 372 278 356 c 0
 278 340 391 119 420 76 c 0
 423 71 448 29 485 29 c 0
 489 29 495 25 495 17 c 0
 495 0 494 -9 446 -9 c 0
 444 -9 412 -7 388 14 c 0
 353 45 303 171 269 254 c 0
 241 322 228 332 220 332 c 2
 206 332 l 1
 165 332 l 2
 155 332 154 332 154 261 c 0
 154 120 155 134 155 120 c 0
 155 -1 228 41 228 8 c 0
 228 -2 226 -8 216 -8 c 0
 213 -8 120 -1 113 -1 c 0
 79 -1 43 -5 35 -5 c 0
 28 -5 20 -2 20 11 c 0
 20 46 70 2 70 112 c 0
 70 176 71 317 71 428 c 0
 71 533 70 570 70 597 c 0
 70 705 12 665 12 696 c 0
154 535 m 2
 154 404 154 385 159 380 c 0
 167 372 174 371 185 371 c 2
 191 371 l 1
 208 371 l 2
 281 371 303 439 303 510 c 0
 303 579 273 673 186 673 c 0
 155 673 154 653 154 563 c 2
 154 535 l 2
EndSplineSet
EndChar
StartChar: S
Encoding: 83 83 51
Width: 500
Flags: MW
LayerCount: 2
Back
Fore
SplineSet
44 187 m 0
 44 202 51 208 58 208 c 0
 64 208 72 204 74 198 c 0
 95 137 137 31 256 31 c 0
 340 31 392 89 392 174 c 0
 392 309 248 301 140 379 c 0
 93 413 64 458 64 526 c 0
 64 645 145 722 260 722 c 0
 314 722 370 688 382 688 c 0
 387 688 396 696 402 696 c 0
 407 696 413 693 414 688 c 0
 421 642 432 566 432 552 c 0
 432 531 424 524 418 524 c 0
 410 524 407 529 404 538 c 0
 384 599 375 606 352 632 c 0
 322 665 283 680 246 680 c 0
 182 680 128 639 128 569 c 0
 128 409 322 453 424 321 c 0
 444 295 456 260 456 214 c 0
 456 70 366 -14 256 -14 c 0
 183 -14 139 -9 86 24 c 0
 68 36 44 178 44 187 c 0
EndSplineSet
EndChar
StartChar: T
Encoding: 84 84 52
Width: 500
Flags: MW
LayerCount: 2
Back
Fore
SplineSet
17 579 m 0
 17 608 21 658 24 683 c 0
 26 705 25 718 46 718 c 0
 95 718 89 709 244 709 c 0
 348 709 424 711 461 715 c 0
 462 715 464 716 465 716 c 0
 477 716 479 702 479 699 c 0
 479 687 483 625 483 617 c 0
 483 582 480 579 467 579 c 0
 465 579 459 580 456 591 c 0
 448 638 446 657 395 657 c 2
 317 657 l 2
 298 657 296 653 296 593 c 2
 296 544 l 2
 296 311 293 269 293 178 c 0
 293 152 292 131 292 113 c 0
 292 86 294 68 301 56 c 0
 324 19 353 38 353 12 c 0
 353 -4 347 -5 335 -5 c 0
 316 -5 278 3 254 3 c 0
 235 3 202 -4 179 -4 c 0
 164 -4 152 0 152 12 c 0
 152 34 168 30 183 36 c 0
 194 40 204 49 206 76 c 0
 214 146 216 411 216 453 c 0
 216 559 215 632 215 632 c 2
 215 657 213 660 168 660 c 0
 77 660 76 649 69 635 c 0
 42 599 53 562 28 562 c 0
 22 562 17 565 17 579 c 0
EndSplineSet
EndChar
StartChar: U
Encoding: 85 85 53
Width: 500
Flags: MW
LayerCount: 2
Back
Fore
SplineSet
23 697 m 0
 23 704 23 710 38 710 c 0
 57 710 76 706 114 706 c 0
 146 706 127 708 177 708 c 0
 183 708 192 707 192 694 c 0
 192 660 157 724 157 580 c 2
 157 552 l 2
 157 465 156 395 156 336 c 0
 156 199 156 28 272 28 c 0
 328 28 402 29 402 324 c 0
 402 494 401 493 401 535 c 0
 401 589 400 645 383 669 c 0
 371 686 352 676 352 692 c 0
 352 700 355 708 365 708 c 0
 372 708 405 706 412 706 c 0
 438 706 452 709 464 709 c 0
 477 709 477 701 477 696 c 0
 477 680 459 674 453 653 c 0
 448 636 447 624 447 587 c 0
 447 570 448 550 448 520 c 0
 448 137 425 54 350 2 c 0
 328 -13 284 -20 263 -20 c 0
 189 -20 148 0 119 44 c 0
 70 117 70 209 70 414 c 2
 70 431 l 2
 70 500 72 544 72 575 c 0
 72 644 69 668 34 678 c 0
 23 681 23 692 23 697 c 0
EndSplineSet
EndChar
StartChar: V
Encoding: 86 86 54
Width: 500
Flags: MW
LayerCount: 2
Back
Fore
SplineSet
2 696 m 0
 2 709 17 710 27 710 c 0
 47 710 26 706 85 706 c 0
 101 706 124 708 143 708 c 0
 170 708 172 707 172 697 c 0
 172 682 156 683 156 650 c 0
 156 608 180 557 241 312 c 0
 260 237 281 162 286 162 c 0
 290 162 401 596 401 649 c 0
 401 696 372 676 372 700 c 0
 372 709 374 710 388 710 c 0
 397 710 410 709 437 709 c 0
 456 709 470 711 483 711 c 0
 492 711 498 709 498 697 c 0
 498 675 474 687 457 625 c 2
 312 116 l 2
 271 -30 275 -31 268 -31 c 0
 264 -31 255 -25 239 38 c 0
 218 117 201 172 172 270 c 0
 80 578 80 611 62 643 c 0
 30 699 2 661 2 696 c 0
EndSplineSet
EndChar
StartChar: W
Encoding: 87 87 55
Width: 500
Flags: MW
LayerCount: 2
Back
Fore
SplineSet
6 702 m 0
 6 715 16 716 23 716 c 0
 37 716 31 712 73 712 c 0
 104 712 120 716 128 716 c 0
 136 716 137 713 137 704 c 0
 137 688 130 690 130 656 c 0
 130 624 148 560 190 308 c 0
 203 230 211 193 214 193 c 0
 216 193 227 239 241 307 c 0
 246 333 250 354 250 373 c 0
 250 386 207 620 203 649 c 0
 200 668 190 669 184 670 c 0
 168 676 167 682 167 696 c 0
 167 716 175 718 180 718 c 0
 189 718 199 712 228 712 c 0
 231 712 246 718 256 718 c 0
 263 718 269 715 269 709 c 0
 269 693 258 690 258 655 c 0
 258 632 265 606 274 560 c 0
 278 539 280 506 284 506 c 0
 289 506 321 646 321 667 c 0
 321 712 304 686 304 708 c 0
 304 718 308 720 313 720 c 0
 318 720 332 716 339 716 c 2
 345 716 l 2
 350 716 356 718 367 721 c 2
 371 721 l 2
 374 721 376 719 376 709 c 0
 376 687 365 695 358 674 c 0
 355 663 350 645 345 618 c 0
 316 472 300 436 300 416 c 0
 300 411 337 205 341 205 c 0
 345 205 431 621 431 655 c 0
 431 703 419 683 419 708 c 0
 419 717 420 718 429 718 c 0
 435 718 438 716 456 716 c 0
 470 716 471 720 484 720 c 0
 490 720 494 717 494 705 c 0
 494 689 485 690 476 669 c 0
 468 652 466 635 458 596 c 0
 333 -36 334 -37 328 -37 c 0
 323 -37 315 19 308 52 c 0
 289 149 270 261 266 261 c 0
 259 261 200 7 199 -1 c 0
 195 -30 193 -40 189 -40 c 0
 180 -40 168 66 126 268 c 0
 92 431 78 514 70 562 c 0
 43 733 6 655 6 702 c 0
EndSplineSet
EndChar
StartChar: X
Encoding: 88 88 56
Width: 500
Flags: MW
LayerCount: 2
Back
Fore
SplineSet
-10 701 m 0
 -10 712 -8 714 22 714 c 0
 55 714 46 710 92 710 c 0
 101 710 166 712 172 712 c 0
 183 712 190 712 190 703 c 0
 190 675 162 697 162 664 c 0
 162 643 186 596 198 571 c 0
 235 494 251 452 257 452 c 0
 261 452 270 474 277 489 c 0
 306 549 350 632 350 655 c 0
 350 702 322 677 322 704 c 0
 322 712 326 714 334 714 c 0
 360 714 380 710 404 710 c 0
 483 710 463 714 482 714 c 0
 489 714 496 712 496 704 c 0
 496 682 456 692 425 661 c 0
 413 649 401 630 387 602 c 0
 346 519 285 396 285 392 c 0
 285 380 296 368 374 204 c 0
 397 156 438 64 456 40 c 0
 462 32 510 32 510 13 c 0
 510 5 509 -1 486 -1 c 0
 462 -1 412 6 404 6 c 0
 355 6 337 0 328 0 c 0
 322 0 318 2 318 13 c 0
 318 39 348 21 348 56 c 0
 348 80 317 136 248 280 c 0
 243 289 241 297 239 297 c 0
 237 297 226 272 217 255 c 0
 174 172 128 81 128 55 c 0
 128 46 140 28 160 28 c 0
 163 28 164 24 164 11 c 0
 164 1 156 0 139 0 c 0
 124 0 89 3 82 3 c 0
 67 3 33 -1 16 -1 c 0
 1 -1 -8 0 -8 18 c 0
 -8 39 26 20 54 51 c 0
 90 91 125 179 162 252 c 0
 191 309 207 348 207 355 c 0
 207 364 191 404 119 551 c 0
 96 598 70 664 18 681 c 0
 9 684 -10 684 -10 701 c 0
EndSplineSet
EndChar
StartChar: Y
Encoding: 89 89 57
Width: 500
Flags: MW
LayerCount: 2
Back
Fore
SplineSet
1 688 m 0
 1 703 8 705 38 705 c 0
 46 705 90 703 100 703 c 0
 114 703 136 704 153 704 c 0
 174 704 183 699 183 692 c 0
 183 671 158 676 158 657 c 0
 158 627 189 579 206 553 c 0
 247 490 266 445 271 445 c 0
 281 445 298 476 326 520 c 0
 359 573 384 605 384 632 c 0
 384 660 374 668 364 672 c 0
 353 676 340 675 340 693 c 0
 340 703 348 705 364 705 c 0
 374 705 386 704 400 704 c 0
 414 704 438 703 457 703 c 0
 481 703 499 702 499 688 c 0
 499 678 480 679 464 661 c 0
 432 625 368 502 321 421 c 0
 304 392 298 322 298 249 c 0
 298 222 299 167 299 133 c 2
 299 109 l 2
 299 37 323 31 331 31 c 0
 333 31 341 30 343 30 c 0
 349 30 352 21 352 16 c 0
 352 3 347 0 334 0 c 0
 324 0 284 1 261 1 c 0
 213 1 210 -3 180 -3 c 0
 164 -3 160 1 160 8 c 0
 160 29 173 22 185 28 c 0
 197 34 210 50 210 89 c 0
 210 114 212 107 212 292 c 0
 212 353 176 443 104 570 c 0
 51 664 33 675 16 675 c 0
 11 675 1 675 1 688 c 0
EndSplineSet
EndChar
StartChar: Z
Encoding: 90 90 58
Width: 500
Flags: MW
LayerCount: 2
Back
Fore
SplineSet
16 14 m 0
 16 27 43 58 82 139 c 0
 148 274 340 620 340 646 c 0
 340 656 325 657 303 657 c 0
 224 657 177 654 145 653 c 0
 64 651 57 558 42 558 c 0
 38 558 31 561 31 574 c 0
 31 609 38 624 38 640 c 0
 38 656 40 662 43 687 c 0
 45 704 50 708 68 708 c 0
 87 708 146 705 262 705 c 0
 368 705 344 706 423 706 c 0
 449 706 462 703 462 691 c 0
 462 666 144 85 144 64 c 0
 144 44 189 44 244 44 c 0
 352 44 396 47 439 75 c 0
 463 91 467 110 477 110 c 0
 478 110 484 109 484 99 c 0
 484 84 469 55 456 31 c 0
 446 13 445 0 419 0 c 0
 323 0 331 -1 255 -1 c 0
 -3 -1 107 -2 34 -2 c 0
 24 -2 16 0 16 14 c 0
EndSplineSet
EndChar
StartChar: bracketleft
Encoding: 91 91 59
Width: 500
Flags: MW
LayerCount: 2
Back
Fore
SplineSet
302 -82 m 2
 302 77 308 372 308 570 c 0
 308 671 307 721 307 738 c 0
 307 761 320 763 356 763 c 2
 399 763 l 2
 452 763 458 764 465 764 c 0
 474 764 481 754 481 743 c 0
 481 732 477 723 469 723 c 0
 450 723 386 722 377 722 c 2
 361 722 l 2
 356 722 353 722 353 714 c 0
 353 698 355 652 355 559 c 0
 355 402 350 165 350 15 c 0
 350 -27 350 -82 351 -132 c 0
 351 -144 353 -159 363 -159 c 0
 381 -159 444 -158 453 -158 c 0
 471 -158 477 -163 477 -180 c 0
 477 -202 463 -204 425 -204 c 2
 335 -204 l 2
 305 -204 302 -198 302 -143 c 2
 302 -82 l 2
EndSplineSet
EndChar
StartChar: backslash
Encoding: 92 92 130
Width: 500
Flags: MW
LayerCount: 2
Back
Fore
SplineSet
62 723 m 0
 62 733 74 735 83 735 c 0
 101 735 107 732 112 717 c 0
 114 710 419 -113 419 -113 c 2
 427 -136 438 -158 438 -167 c 0
 438 -183 416 -183 405 -183 c 0
 396 -183 391 -181 380 -152 c 2
 76 679 l 2
 71 692 62 714 62 723 c 0
EndSplineSet
EndChar
StartChar: bracketright
Encoding: 93 93 61
Width: 500
Flags: MW
LayerCount: 2
Back
Fore
SplineSet
29 -184 m 0
 29 -173 34 -163 42 -163 c 2
 134 -163 l 1
 150 -163 l 2
 155 -163 157 -162 157 -154 c 0
 157 -138 156 -92 156 1 c 0
 156 158 160 395 160 545 c 0
 160 587 160 641 159 691 c 0
 159 703 157 718 147 718 c 2
 57 718 l 2
 39 718 33 722 33 739 c 0
 33 750 37 762 50 762 c 0
 100 763 62 764 175 764 c 0
 205 764 208 758 208 703 c 2
 208 642 l 2
 208 483 203 188 203 -10 c 0
 203 -111 204 -161 204 -178 c 0
 204 -201 191 -204 155 -204 c 2
 112 -204 l 1
 46 -204 l 2
 37 -204 29 -195 29 -184 c 0
EndSplineSet
EndChar
StartChar: asciicircum
Encoding: 94 94 62
Width: 500
Flags: MW
LayerCount: 2
Back
Fore
SplineSet
118 331 m 0
 118 336 127 350 131 356 c 0
 218 502 224 521 251 521 c 0
 279 521 285 501 371 356 c 0
 375 350 382 334 382 329 c 0
 382 322 373 321 364 321 c 2
 349 321 l 2
 332 321 327 339 319 354 c 0
 274 437 260 468 251 468 c 0
 241 468 228 437 183 354 c 0
 175 339 169 322 152 322 c 2
 138 322 l 2
 128 322 118 324 118 331 c 0
EndSplineSet
EndChar
StartChar: underscore
Encoding: 95 95 63
Width: 500
Flags: MW
LayerCount: 2
Back
Fore
SplineSet
0 -38 m 0
 0 -25 1 -17 19 -17 c 2
 484 -17 l 6
 500 -17 500 -24 500 -38 c 4
 500 -55 500 -62 479 -62 c 6
 18 -62 l 2
 0 -62 0 -55 0 -38 c 0
EndSplineSet
EndChar
StartChar: grave
Encoding: 96 96 64
Width: 500
Flags: MW
LayerCount: 2
Back
Fore
SplineSet
176 636 m 0
 176 657 224 662 228 662 c 0
 232 662 241 659 248 643 c 0
 300 518 325 505 325 491 c 0
 325 485 318 480 312 480 c 0
 304 480 289 495 274 511 c 0
 233 554 176 615 176 636 c 0
EndSplineSet
EndChar
StartChar: a
Encoding: 97 97 65
Width: 500
Flags: MW
LayerCount: 2
Back
Fore
SplineSet
107 85 m 0
 107 193 212 203 337 225 c 0
 348 227 354 228 354 241 c 0
 354 261 356 277 356 293 c 0
 356 380 287 401 259 401 c 0
 196 401 187 366 187 341 c 0
 187 326 191 314 191 305 c 0
 191 288 184 285 173 285 c 0
 161 285 111 290 111 324 c 0
 111 375 193 434 279 434 c 0
 429 434 429 346 429 308 c 0
 429 178 424 197 424 122 c 0
 424 -11 500 49 500 13 c 0
 500 -2 479 -8 437 -8 c 0
 379 -8 362 47 357 47 c 0
 353 47 297 -15 225 -15 c 0
 182 -15 155 -9 132 15 c 0
 114 33 107 58 107 85 c 0
185 100 m 0
 185 55 212 25 262 25 c 0
 354 25 354 94 354 127 c 2
 354 199 l 2
 354 205 351 208 347 208 c 0
 344 208 340 206 337 206 c 0
 273 195 185 183 185 100 c 0
EndSplineSet
EndChar
StartChar: b
Encoding: 98 98 66
Width: 500
Flags: MW
LayerCount: 2
Back
Fore
SplineSet
11 691 m 0
 11 712 55 721 73 729 c 0
 93 738 124 756 134 756 c 0
 140 756 149 749 149 738 c 0
 149 702 148 743 148 411 c 0
 148 385 149 375 154 375 c 0
 169 375 169 442 299 442 c 0
 415 442 472 336 472 235 c 0
 472 182 445 80 387 33 c 0
 352 5 309 -11 257 -11 c 0
 170 -11 127 47 120 47 c 0
 110 47 97 -17 74 -17 c 0
 65 -17 63 -13 63 -4 c 0
 63 20 67 72 67 78 c 0
 67 154 76 229 76 342 c 2
 76 589 l 2
 76 632 69 680 35 680 c 2
 25 680 l 2
 18 680 11 682 11 691 c 0
148 132 m 2
 148 109 187 25 279 25 c 0
 366 25 407 102 407 185 c 0
 407 282 352 388 249 388 c 0
 223 388 196 378 177 360 c 0
 151 336 148 325 148 313 c 2
 148 132 l 2
EndSplineSet
EndChar
StartChar: c
Encoding: 99 99 67
Width: 500
Flags: MW
LayerCount: 2
Back
Fore
SplineSet
56 192 m 0
 56 314 146 429 288 429 c 0
 329 429 402 415 404 396 c 0
 405 384 406 366 406 349 c 0
 406 326 404 305 396 305 c 0
 382 305 379 323 362 337 c 0
 339 357 283 390 230 390 c 0
 210 390 131 363 131 224 c 0
 131 122 205 31 302 31 c 0
 382 31 421 83 434 83 c 0
 440 83 444 78 444 73 c 0
 444 64 391 -21 262 -21 c 0
 138 -21 56 58 56 192 c 0
EndSplineSet
EndChar
StartChar: d
Encoding: 100 100 68
Width: 500
Flags: MW
LayerCount: 2
Back
Fore
SplineSet
35 194 m 0
 35 313 110 438 259 438 c 0
 300 438 351 409 364 409 c 0
 367 409 368 415 368 445 c 0
 368 574 370 537 370 573 c 0
 370 640 370 685 322 685 c 2
 312 685 l 2
 293 685 293 686 293 693 c 2
 293 694 l 2
 293 709 325 706 398 743 c 0
 410 748 424 758 436 758 c 0
 443 758 448 753 448 738 c 0
 448 717 436 605 436 521 c 0
 436 341 434 228 434 156 c 0
 434 65 440 44 466 35 c 0
 480 30 504 31 504 14 c 0
 504 9 500 2 431 -4 c 0
 404 -6 383 -15 372 -15 c 0
 365 -15 361 -12 361 -4 c 0
 361 5 358 16 358 34 c 0
 358 41 357 51 350 51 c 0
 340 51 303 -15 216 -15 c 0
 96 -15 35 87 35 194 c 0
107 241 m 0
 107 149 163 38 256 38 c 0
 308 38 363 71 363 117 c 0
 364 288 364 270 364 287 c 0
 364 342 352 356 339 364 c 0
 310 383 264 408 232 408 c 0
 152 408 107 334 107 241 c 0
EndSplineSet
EndChar
StartChar: f
Encoding: 102 102 70
Width: 500
Flags: MW
LayerCount: 2
Back
Fore
SplineSet
110 385 m 0
 110 410 120 415 152 415 c 2
 173 415 l 2
 190 415 191 424 191 438 c 0
 191 644 339 747 411 747 c 0
 442 747 463 736 463 719 c 0
 463 713 460 703 457 691 c 0
 451 671 450 659 434 659 c 0
 422 659 426 685 363 685 c 0
 279 685 258 556 258 458 c 2
 258 433 l 2
 258 422 260 414 270 414 c 0
 312 414 345 418 366 422 c 0
 375 424 381 432 387 432 c 0
 390 432 392 428 392 424 c 0
 392 407 383 395 378 386 c 0
 374 380 365 377 353 377 c 0
 306 377 337 376 275 376 c 0
 266 376 259 375 259 366 c 2
 259 308 l 2
 259 290 263 153 264 110 c 0
 265 72 265 19 327 19 c 0
 343 19 344 11 344 4 c 0
 344 0 343 -6 333 -6 c 0
 330 -6 256 -1 233 -1 c 0
 196 -1 198 -6 159 -6 c 0
 150 -6 144 -3 144 8 c 0
 144 23 193 16 193 77 c 0
 193 105 189 171 189 359 c 0
 189 374 185 375 172 375 c 0
 161 375 149 372 132 372 c 0
 111 372 110 379 110 385 c 0
EndSplineSet
EndChar
StartChar: g
Encoding: 103 103 71
Width: 500
Flags: MW
LayerCount: 2
Back
Fore
SplineSet
39 -97 m 0
 39 -36 111 -22 111 -12 c 0
 111 -6 78 3 78 47 c 0
 78 115 130 136 130 146 c 0
 130 162 62 175 62 280 c 0
 62 332 92 433 235 433 c 0
 323 433 347 393 361 393 c 0
 376 393 393 403 412 411 c 0
 438 422 431 459 448 459 c 0
 451 459 461 459 461 451 c 0
 461 416 448 374 439 360 c 0
 428 343 412 335 398 329 c 1
 398 329 409 299 409 279 c 0
 409 194 336 127 244 127 c 0
 199 127 182 136 167 136 c 0
 165 136 122 134 122 87 c 0
 122 38 173 35 256 35 c 2
 302 35 l 2
 349 35 447 32 447 -53 c 0
 447 -70 446 -86 440 -100 c 0
 414 -165 328 -207 225 -207 c 0
 147 -207 39 -184 39 -97 c 0
97 -91 m 0
 97 -154 159 -180 225 -180 c 0
 302 -180 386 -145 386 -89 c 0
 386 -38 332 -38 275 -38 c 2
 266 -38 l 2
 213 -38 154 -24 143 -24 c 0
 134 -24 97 -49 97 -91 c 0
138 290 m 0
 138 210 180 150 238 150 c 0
 301 150 331 207 331 269 c 0
 331 338 295 411 227 411 c 0
 181 411 138 371 138 290 c 0
EndSplineSet
EndChar
StartChar: h
Encoding: 104 104 72
Width: 500
Flags: MW
LayerCount: 2
Back
Fore
SplineSet
16 697 m 0
 16 716 54 718 78 730 c 0
 102 742 131 758 142 758 c 0
 153 758 154 742 154 735 c 0
 154 721 148 707 148 673 c 0
 145 408 141 408 141 379 c 0
 141 367 143 360 148 360 c 0
 156 360 197 434 268 434 c 0
 356 434 413 376 413 237 c 2
 413 92 l 2
 413 77 417 37 440 34 c 0
 464 31 483 25 483 13 c 0
 483 0 470 -3 456 -3 c 0
 446 -3 401 2 383 2 c 0
 369 2 323 -1 316 -1 c 0
 305 -1 296 1 296 9 c 0
 296 42 339 4 339 72 c 0
 339 89 341 72 341 238 c 0
 341 320 294 388 241 388 c 0
 210 388 182 367 163 349 c 0
 144 330 140 310 140 164 c 2
 140 141 l 2
 140 93 143 46 173 30 c 0
 190 21 214 30 214 12 c 0
 214 6 210 0 205 0 c 0
 204 0 116 5 112 5 c 0
 100 5 64 0 51 0 c 0
 23 0 27 4 27 10 c 0
 27 15 28 20 37 23 c 0
 69 35 73 60 73 100 c 2
 77 441 l 1
 77 490 l 2
 77 665 77 686 43 686 c 0
 31 686 32 687 30 687 c 0
 21 687 16 691 16 697 c 0
EndSplineSet
EndChar
StartChar: i
Encoding: 105 105 73
Width: 500
Flags: MW
LayerCount: 2
Back
Fore
SplineSet
137 381 m 0
 137 397 162 398 218 421 c 0
 254 436 252 439 268 439 c 0
 274 439 283 434 283 420 c 0
 283 408 277 389 277 372 c 2
 277 98 l 2
 277 33 308 27 333 25 c 0
 350 24 363 24 363 10 c 0
 363 4 362 -7 346 -7 c 0
 342 -7 336 -6 331 -6 c 0
 289 -6 298 -4 260 -4 c 0
 218 -4 206 -6 189 -6 c 0
 164 -6 149 -3 149 7 c 0
 149 14 155 23 164 26 c 0
 203 39 205 33 205 206 c 2
 205 294 l 2
 205 377 169 363 147 371 c 0
 142 373 137 377 137 381 c 0
194 590 m 0
 194 603 222 645 244 645 c 0
 267 645 290 608 290 588 c 0
 290 564 252 533 243 533 c 0
 214 533 194 574 194 590 c 0
EndSplineSet
EndChar
StartChar: j
Encoding: 106 106 74
Width: 500
Flags: MW
LayerCount: 2
Back
Fore
SplineSet
156 -137 m 0
 156 -120 161 -108 178 -108 c 0
 199 -108 220 -151 236 -151 c 0
 253 -151 259 -117 259 10 c 2
 259 314 l 2
 259 336 258 373 200 373 c 0
 191 373 184 374 184 383 c 0
 184 396 213 391 272 419 c 0
 293 429 311 440 319 440 c 0
 330 440 331 430 331 417 c 2
 331 406 l 2
 331 390 329 371 329 359 c 2
 329 35 l 2
 329 -59 302 -200 197 -200 c 0
 172 -200 158 -193 158 -173 c 0
 158 -162 156 -148 156 -137 c 0
249 591 m 0
 249 608 274 642 296 642 c 0
 319 642 344 611 344 591 c 0
 344 567 309 538 300 538 c 0
 271 538 249 575 249 591 c 0
EndSplineSet
EndChar
StartChar: k
Encoding: 107 107 75
Width: 500
Flags: MW
LayerCount: 2
Back
Fore
SplineSet
0 688 m 0
 0 696 10 703 46 715 c 0
 95 731 79 724 115 747 c 0
 123 752 136 760 146 760 c 0
 156 760 159 750 159 741 c 0
 159 731 151 677 151 488 c 0
 151 420 148 351 148 283 c 2
 148 262 l 2
 148 241 149 220 152 220 c 0
 165 220 168 232 180 243 c 0
 300 349 306 364 306 370 c 0
 306 394 266 391 266 409 c 0
 266 415 269 419 277 419 c 0
 281 419 286 418 293 418 c 0
 366 420 404 423 425 423 c 0
 445 423 449 420 449 414 c 0
 449 394 422 409 368 371 c 0
 359 365 359 364 325 336 c 0
 235 260 235 262 235 250 c 0
 235 243 240 235 245 227 c 0
 310 139 357 86 386 58 c 0
 444 2 481 35 481 11 c 0
 481 -6 469 -6 444 -6 c 0
 432 -6 359 -5 350 -5 c 0
 323 -5 214 153 185 192 c 0
 182 196 179 198 175 198 c 0
 164 198 147 178 147 152 c 0
 147 147 148 142 148 135 c 0
 152 41 149 64 164 40 c 0
 178 18 232 27 232 8 c 0
 232 -6 207 -8 203 -8 c 0
 194 -8 143 -2 113 -2 c 0
 86 -2 85 -6 45 -6 c 0
 33 -6 22 -5 22 6 c 0
 22 19 39 22 45 24 c 0
 74 36 76 54 76 116 c 0
 76 135 77 152 77 160 c 2
 78 603 l 2
 78 670 53 678 36 678 c 0
 30 678 25 677 18 677 c 0
 8 677 0 679 0 688 c 0
EndSplineSet
EndChar
StartChar: l
Encoding: 108 108 76
Width: 500
Flags: MW
LayerCount: 2
Back
Fore
SplineSet
130 693 m 0
 130 712 142 706 198 728 c 0
 224 738 254 756 274 756 c 0
 284 756 286 747 286 737 c 0
 286 722 278 676 278 585 c 2
 278 529 l 2
 278 444 276 446 276 396 c 2
 276 98 l 2
 276 66 281 25 357 25 c 0
 364 25 370 17 370 10 c 0
 370 -1 358 -4 339 -4 c 0
 318 -4 269 3 238 3 c 0
 192 3 179 -5 157 -5 c 0
 146 -5 141 2 141 5 c 0
 141 23 160 20 175 27 c 0
 199 38 202 57 202 92 c 0
 202 100 201 108 201 118 c 2
 201 192 l 2
 201 277 205 490 205 617 c 0
 205 648 193 676 181 681 c 0
 174 684 161 685 141 685 c 0
 135 685 130 686 130 693 c 0
EndSplineSet
EndChar
StartChar: m
Encoding: 109 109 77
Width: 500
Flags: MW
LayerCount: 2
Back
Fore
SplineSet
14 388 m 0
 14 409 46 404 77 423 c 0
 92 432 97 438 109 438 c 0
 115 438 118 425 118 409 c 0
 118 397 116 375 116 367 c 0
 116 361 116 355 120 355 c 0
 124 355 139 427 200 427 c 0
 264 427 270 348 276 348 c 0
 280 348 308 430 357 430 c 0
 419 430 446 357 451 280 c 0
 454 231 455 188 455 153 c 2
 455 121 l 2
 455 68 456 38 468 30 c 0
 472 28 485 28 485 10 c 0
 485 -5 470 -5 463 -5 c 0
 454 -5 431 -1 418 -1 c 0
 399 -1 384 -5 370 -5 c 0
 363 -5 353 -3 353 5 c 0
 353 25 370 22 374 41 c 0
 375 49 376 67 376 87 c 2
 376 103 l 2
 376 325 373 313 358 352 c 0
 350 372 337 383 323 383 c 0
 300 383 275 338 275 329 c 0
 275 316 281 303 281 201 c 2
 281 116 l 2
 281 61 284 30 312 21 c 0
 319 19 320 8 320 5 c 0
 320 -6 312 -6 308 -6 c 0
 297 -6 280 -1 261 -1 c 0
 249 -1 209 -6 203 -6 c 0
 199 -6 189 -3 189 7 c 0
 189 16 190 20 199 28 c 0
 202 30 209 32 209 90 c 0
 209 104 210 91 210 199 c 0
 210 262 208 256 208 262 c 0
 208 331 192 379 163 379 c 0
 138 379 115 345 115 306 c 2
 115 292 l 1
 115 103 l 2
 115 -1 153 34 153 11 c 0
 153 0 152 -4 139 -4 c 0
 129 -4 113 -1 86 -1 c 0
 61 -1 46 -4 36 -4 c 0
 21 -4 20 4 20 11 c 0
 20 32 35 12 41 55 c 0
 44 76 45 136 45 207 c 0
 45 246 44 289 44 330 c 0
 44 400 14 356 14 388 c 0
EndSplineSet
EndChar
StartChar: o
Encoding: 111 111 79
Width: 500
Flags: MW
LayerCount: 2
Back
Fore
SplineSet
35 202 m 0
 35 315 109 431 256 431 c 0
 365 431 473 355 473 209 c 0
 473 59 361 -19 249 -19 c 0
 106 -19 35 91 35 202 c 0
114 236 m 0
 114 90 199 12 276 12 c 0
 340 12 398 66 398 179 c 0
 398 285 345 403 234 403 c 0
 182 403 114 360 114 236 c 0
EndSplineSet
EndChar
StartChar: p
Encoding: 112 112 80
Width: 500
Flags: MW
LayerCount: 2
Back
Fore
SplineSet
28 385 m 0
 28 397 54 393 120 426 c 0
 151 442 154 445 160 445 c 0
 167 445 172 442 172 432 c 0
 172 396 169 385 169 373 c 0
 169 368 171 365 172 365 c 0
 178 365 220 434 310 434 c 0
 425 434 478 337 478 233 c 0
 478 119 408 -10 280 -10 c 0
 183 -10 176 29 162 29 c 0
 160 29 159 26 159 21 c 2
 159 -90 l 1
 159 -103 l 2
 159 -125 169 -140 174 -150 c 0
 198 -192 253 -157 253 -189 c 0
 253 -192 250 -201 221 -201 c 0
 197 -201 197 -197 124 -197 c 0
 94 -197 78 -200 66 -200 c 0
 37 -200 34 -197 34 -190 c 0
 34 -159 90 -203 90 -83 c 2
 90 -63 l 2
 90 134 93 172 93 214 c 2
 93 236 l 2
 93 336 91 374 50 374 c 0
 27 374 28 378 28 385 c 0
159 192 m 0
 159 172 160 162 160 142 c 0
 160 44 242 21 292 21 c 0
 374 21 413 100 413 185 c 0
 413 282 363 383 271 383 c 0
 234 383 209 368 190 351 c 0
 167 331 159 319 159 192 c 0
EndSplineSet
EndChar
StartChar: q
Encoding: 113 113 81
Width: 500
Flags: MW
LayerCount: 2
Back
Fore
SplineSet
35 175 m 0
 35 357 163 432 266 432 c 0
 342 432 390 381 391 381 c 0
 401 381 416 445 437 445 c 0
 443 445 445 442 445 429 c 0
 445 399 437 385 437 232 c 0
 437 49 440 188 440 -81 c 0
 440 -197 505 -161 505 -188 c 0
 505 -196 500 -200 488 -200 c 0
 481 -200 462 -199 423 -199 c 0
 341 -199 342 -204 332 -204 c 0
 312 -204 309 -197 309 -189 c 0
 309 -172 341 -176 355 -166 c 0
 363 -160 366 -151 366 -81 c 0
 366 -39 368 -9 368 11 c 0
 368 52 367 57 363 57 c 0
 347 57 319 -25 214 -25 c 0
 165 -25 131 -11 102 15 c 0
 36 75 35 142 35 175 c 0
105 217 m 0
 105 79 200 29 250 29 c 0
 362 29 366 101 366 139 c 2
 366 302 l 2
 366 359 295 403 245 403 c 0
 201 403 105 368 105 217 c 0
EndSplineSet
EndChar
StartChar: r
Encoding: 114 114 82
Width: 500
Flags: MW
LayerCount: 2
Back
Fore
SplineSet
80 380 m 0
 80 404 130 401 212 440 c 0
 217 442 225 444 226 444 c 0
 235 444 240 434 240 424 c 0
 240 416 238 407 238 397 c 0
 238 355 240 354 246 354 c 0
 254 354 287 435 352 435 c 0
 373 435 378 429 398 416 c 0
 416 404 420 392 420 387 c 0
 420 346 389 331 386 331 c 0
 363 331 358 355 310 355 c 0
 271 355 235 314 235 293 c 2
 235 189 l 2
 235 83 238 101 238 84 c 0
 238 54 261 34 284 30 c 0
 309 26 336 28 336 13 c 0
 336 6 335 -3 324 -3 c 0
 292 -3 261 2 238 2 c 0
 184 2 151 -3 134 -3 c 0
 112 -3 112 2 112 9 c 0
 112 17 115 23 126 26 c 0
 162 35 162 56 162 135 c 0
 162 326 160 307 160 326 c 0
 160 344 155 363 110 363 c 0
 107 363 104 364 100 364 c 0
 91 364 80 366 80 380 c 0
EndSplineSet
EndChar
StartChar: s
Encoding: 115 115 83
Width: 500
Flags: MW
LayerCount: 2
Back
Fore
SplineSet
100 43 m 2
 100 130 l 2
 100 145 108 156 115 156 c 0
 136 156 132 136 141 113 c 0
 151 88 183 21 245 21 c 0
 276 21 332 35 332 92 c 0
 332 213 108 170 108 314 c 0
 108 391 181 438 259 438 c 0
 363 438 373 408 373 401 c 0
 373 398 377 352 377 341 c 0
 377 319 373 312 359 312 c 0
 342 312 328 404 238 404 c 0
 200 404 171 383 171 353 c 0
 171 294 230 281 278 263 c 0
 373 227 400 197 400 119 c 0
 400 81 376 41 347 15 c 0
 333 3 308 -16 248 -16 c 0
 196 -16 151 6 136 11 c 0
 112 19 100 18 100 43 c 2
EndSplineSet
EndChar
StartChar: t
Encoding: 116 116 84
Width: 500
Flags: MW
LayerCount: 2
Back
Fore
SplineSet
100 384 m 0
 100 400 119 402 154 438 c 0
 194 480 210 520 230 520 c 0
 238 520 240 514 240 497 c 0
 240 479 236 459 236 440 c 0
 236 421 237 420 278 420 c 2
 312 420 l 2
 377 420 379 434 390 434 c 0
 397 434 400 429 400 423 c 0
 400 413 376 368 368 368 c 0
 295 369 263 375 262 375 c 0
 236 375 232 370 232 342 c 0
 232 314 228 209 228 156 c 0
 228 75 239 40 314 40 c 0
 350 40 377 59 388 59 c 0
 395 59 398 57 398 47 c 0
 398 32 347 -10 288 -10 c 0
 161 -10 154 68 154 107 c 2
 154 122 l 2
 154 210 158 347 158 355 c 0
 158 368 153 371 136 371 c 0
 129 371 123 370 118 370 c 0
 106 370 100 372 100 384 c 0
EndSplineSet
EndChar
StartChar: u
Encoding: 117 117 85
Width: 500
Flags: MW
LayerCount: 2
Back
Fore
SplineSet
26 394 m 0
 26 407 34 416 90 416 c 0
 102 416 139 421 145 421 c 0
 167 421 167 418 167 371 c 0
 167 318 162 299 162 194 c 0
 162 62 222 33 262 33 c 0
 337 33 372 62 372 155 c 2
 370 294 l 2
 370 356 368 378 329 382 c 0
 319 383 309 387 309 395 c 0
 309 409 328 418 393 418 c 0
 407 418 418 423 427 423 c 0
 447 423 450 418 450 395 c 0
 450 389 445 275 445 139 c 0
 445 59 450 34 470 34 c 0
 478 34 487 35 494 35 c 0
 507 35 515 32 515 22 c 0
 515 6 507 5 481 5 c 0
 453 5 395 -6 386 -6 c 0
 374 -6 376 45 370 45 c 0
 363 45 319 -19 235 -19 c 0
 142 -19 85 33 85 155 c 0
 85 317 86 300 86 336 c 0
 86 366 68 380 59 380 c 2
 42 380 l 2
 32 380 26 383 26 394 c 0
EndSplineSet
EndChar
StartChar: v
Encoding: 118 118 86
Width: 500
Flags: MW
LayerCount: 2
Back
Fore
SplineSet
18 416 m 0
 18 425 30 427 36 427 c 0
 43 427 66 423 105 423 c 0
 133 423 133 422 161 422 c 0
 174 422 188 425 199 425 c 0
 209 425 217 421 217 414 c 0
 217 397 208 396 195 396 c 0
 179 396 157 395 157 368 c 0
 157 347 179 303 219 204 c 0
 238 159 260 95 268 95 c 0
 280 95 369 329 369 360 c 0
 369 420 313 377 313 412 c 0
 313 423 324 425 343 425 c 0
 359 425 382 424 408 424 c 0
 427 424 441 425 452 425 c 0
 474 425 479 421 479 410 c 0
 479 397 462 403 442 374 c 0
 383 288 273 -15 240 -15 c 0
 221 -15 231 -14 112 264 c 0
 42 428 18 391 18 416 c 0
EndSplineSet
EndChar
StartChar: w
Encoding: 119 119 87
Width: 500
Flags: MW
LayerCount: 2
Back
Fore
SplineSet
8 416 m 0
 8 425 19 427 24 427 c 0
 30 427 38 423 72 423 c 0
 97 423 77 424 102 424 c 0
 134 424 143 424 143 413 c 0
 143 393 125 410 125 366 c 0
 125 335 138 283 156 204 c 0
 166 159 176 123 180 123 c 0
 182 123 184 136 196 173 c 0
 221 251 229 270 229 294 c 0
 229 302 223 340 217 362 c 0
 203 411 195 397 195 415 c 0
 195 424 200 424 203 424 c 0
 242 424 152 422 274 422 c 0
 289 422 284 423 292 423 c 0
 304 423 305 411 305 408 c 0
 305 399 303 399 299 398 c 0
 294 397 287 393 287 370 c 0
 287 351 306 281 320 204 c 0
 328 159 340 118 344 118 c 0
 349 118 407 308 407 356 c 0
 407 410 385 385 385 414 c 0
 385 422 393 422 402 422 c 2
 454 422 l 2
 473 422 477 421 477 409 c 0
 477 391 462 401 448 372 c 0
 431 336 434 319 353 59 c 0
 338 12 330 -14 322 -14 c 0
 302 -14 255 246 243 246 c 0
 236 246 170 -11 148 -11 c 0
 137 -11 138 9 70 265 c 0
 53 330 56 352 21 396 c 0
 12 407 8 404 8 416 c 0
EndSplineSet
EndChar
StartChar: x
Encoding: 120 120 88
Width: 500
Flags: MW
LayerCount: 2
Back
Fore
SplineSet
26 14 m 0
 26 26 36 19 71 41 c 0
 130 79 191 155 223 191 c 0
 225 194 227 196 227 202 c 0
 227 212 186 256 145 311 c 0
 112 355 79 382 70 383 c 0
 46 388 28 401 28 413 c 0
 28 421 35 425 42 425 c 0
 82 425 81 420 118 420 c 0
 148 420 168 424 196 424 c 0
 218 424 222 420 222 411 c 0
 222 397 192 402 192 382 c 0
 192 370 208 352 221 332 c 0
 260 274 271 253 278 253 c 0
 280 253 283 255 288 261 c 0
 356 353 359 354 359 373 c 0
 359 401 318 396 318 412 c 0
 318 417 318 424 343 424 c 0
 361 424 380 423 404 423 c 0
 422 423 444 425 472 425 c 0
 481 425 490 419 490 412 c 0
 490 393 464 410 408 352 c 0
 361 303 297 233 297 226 c 0
 297 219 303 221 385 117 c 0
 408 88 444 37 491 23 c 0
 500 21 502 20 502 11 c 0
 502 2 499 -1 469 -1 c 0
 455 -1 437 1 412 1 c 0
 390 1 373 -1 355 -1 c 2
 344 -1 l 2
 322 -1 311 0 311 9 c 0
 311 21 343 17 343 38 c 0
 343 68 291 117 260 166 c 0
 256 172 255 175 252 175 c 0
 249 175 243 167 241 165 c 0
 202 112 169 84 169 54 c 0
 169 9 212 36 212 8 c 0
 212 2 212 -1 172 -1 c 0
 154 -1 142 2 121 2 c 0
 101 2 85 -2 69 -2 c 0
 43 -2 26 1 26 14 c 0
EndSplineSet
EndChar
StartChar: y
Encoding: 121 121 89
Width: 500
Flags: MW
LayerCount: 2
Back
Fore
SplineSet
20 412 m 0
 20 421 34 424 40 424 c 0
 94 424 105 422 148 422 c 0
 180 422 177 424 204 424 c 0
 214 424 222 418 222 413 c 0
 222 397 213 395 198 395 c 2
 184 395 l 2
 169 395 167 378 167 367 c 0
 167 342 180 319 228 211 c 0
 249 166 271 104 280 104 c 0
 288 104 368 324 368 358 c 0
 368 418 306 380 306 413 c 0
 306 417 306 425 324 425 c 0
 351 425 378 424 396 424 c 0
 413 424 450 425 458 425 c 0
 472 425 480 420 480 412 c 0
 480 394 450 402 438 385 c 0
 427 369 404 313 384 259 c 2
 296 22 l 2
 239 -130 223 -190 208 -190 c 0
 203 -190 207 -191 162 -191 c 0
 156 -191 142 -189 142 -178 c 0
 142 -167 234 -80 234 -3 c 0
 234 41 114 285 78 353 c 0
 46 414 20 386 20 412 c 0
EndSplineSet
EndChar
StartChar: z
Encoding: 122 122 90
Width: 500
Flags: MW
LayerCount: 2
Back
Fore
SplineSet
96 15 m 0
 96 33 101 35 130 77 c 0
 184 155 312 341 312 356 c 0
 312 358 303 361 290 361 c 0
 269 361 195 355 168 354 c 0
 127 352 120 297 106 297 c 0
 104 297 98 299 98 308 c 0
 98 349 107 388 110 408 c 0
 111 418 120 426 130 426 c 0
 141 426 174 423 238 423 c 0
 297 423 340 426 384 426 c 0
 390 426 396 422 396 416 c 0
 396 400 375 381 368 370 c 0
 262 204 174 101 174 73 c 0
 174 66 197 64 222 64 c 0
 241 64 261 65 272 65 c 0
 364 65 359 100 372 126 c 0
 376 134 379 140 388 140 c 0
 394 140 405 136 405 126 c 0
 405 125 390 88 380 65 c 0
 369 40 369 2 350 2 c 2
 236 2 l 2
 221 2 190 1 162 1 c 2
 146 1 l 2
 117 1 120 0 114 0 c 0
 104 0 96 4 96 15 c 0
EndSplineSet
EndChar
StartChar: braceleft
Encoding: 123 123 91
Width: 500
Flags: MW
LayerCount: 2
Back
Fore
SplineSet
283 267 m 0
 283 299 320 288 320 321 c 0
 320 450 316 589 316 734 c 0
 316 749 326 752 334 752 c 0
 354 752 371 744 396 744 c 0
 432 744 445 750 463 750 c 0
 470 750 481 748 481 740 c 0
 481 703 407 685 381 685 c 0
 377 685 374 680 374 676 c 0
 373 532 371 368 371 255 c 0
 371 162 374 14 374 -105 c 0
 374 -115 416 -114 448 -131 c 0
 455 -135 482 -152 482 -172 c 0
 482 -176 481 -181 474 -181 c 0
 469 -181 442 -172 402 -172 c 0
 349 -172 348 -186 327 -186 c 0
 320 -186 315 -181 315 -174 c 0
 315 -44 318 88 318 202 c 0
 318 243 283 237 283 267 c 0
EndSplineSet
EndChar
StartChar: bar
Encoding: 124 124 92
Width: 500
Flags: MW
LayerCount: 2
Back
Fore
SplineSet
224 -87 m 2
 224 72 230 372 230 570 c 0
 230 671 228 721 228 738 c 0
 228 755 235 762 254 762 c 0
 273 762 276 754 276 737 c 0
 276 731 274 723 274 714 c 0
 274 698 276 652 276 559 c 0
 276 402 272 160 272 10 c 0
 272 -32 271 -87 272 -137 c 0
 272 -142 274 -152 274 -163 c 2
 274 -171 l 2
 274 -190 272 -209 256 -209 c 0
 226 -209 224 -203 224 -148 c 2
 224 -87 l 2
EndSplineSet
EndChar
StartChar: braceright
Encoding: 125 125 93
Width: 500
Flags: MW
LayerCount: 2
Back
Fore
SplineSet
32 -172 m 0
 32 -152 59 -135 66 -131 c 0
 98 -114 140 -115 140 -105 c 0
 140 14 143 162 143 255 c 0
 143 368 141 532 140 676 c 0
 140 680 137 685 133 685 c 0
 107 685 33 703 33 740 c 0
 33 748 44 750 51 750 c 0
 69 750 82 744 118 744 c 0
 143 744 160 752 180 752 c 0
 188 752 198 749 198 734 c 0
 198 589 194 450 194 321 c 0
 194 288 231 299 231 267 c 0
 231 237 196 243 196 202 c 0
 196 88 199 -44 199 -174 c 0
 199 -181 194 -186 187 -186 c 0
 166 -186 165 -172 112 -172 c 0
 72 -172 45 -181 40 -181 c 0
 33 -181 32 -176 32 -172 c 0
EndSplineSet
EndChar
StartChar: asciitilde
Encoding: 126 126 126
Width: 500
Flags: MW
LayerCount: 2
Back
Fore
SplineSet
89 172 m 0
 89 175 138 265 194 265 c 0
 240 265 265 220 311 220 c 0
 359 220 380 269 391 269 c 0
 404 269 411 262 411 254 c 0
 411 249 359 164 294 164 c 0
 241 164 223 210 181 210 c 0
 135 210 118 156 109 156 c 0
 96 156 89 160 89 172 c 0
EndSplineSet
EndChar
StartChar: exclamdown
Encoding: 161 161 108
Width: 500
Flags: MW
LayerCount: 2
Back
Fore
SplineSet
176 615 m 0
 176 632 203 643 214 654 c 0
 226 666 236 689 250 689 c 0
 259 689 282 669 292 656 c 0
 301 644 324 631 324 613 c 0
 324 604 312 596 296 582 c 0
 283 570 271 544 252 544 c 0
 243 544 237 553 228 562 c 0
 194 598 176 598 176 615 c 0
200 20 m 0
 200 27 201 35 204 59 c 0
 216 157 214 257 240 467 c 0
 241 474 244 478 254 478 c 0
 262 478 266 474 266 468 c 0
 291 170 282 230 286 170 c 0
 291 100 296 71 296 25 c 0
 296 1 276 -13 246 -13 c 0
 217 -13 200 -6 200 20 c 0
EndSplineSet
EndChar
StartChar: cent
Encoding: 162 162 104
Width: 500
Flags: MW
LayerCount: 2
Back
Fore
SplineSet
56 192 m 0
 56 290 113 383 208 416 c 0
 246 429 248 417 248 445 c 2
 248 481 l 2
 248 487 256 491 264 491 c 0
 275 491 288 487 288 482 c 2
 288 436 l 2
 288 423 296 433 352 422 c 0
 365 420 379 416 392 409 c 0
 403 403 406 404 406 349 c 0
 406 335 406 305 396 305 c 0
 376 305 390 331 312 369 c 0
 300 375 295 376 292 376 c 0
 289 376 286 373 286 356 c 0
 285 103 284 77 284 45 c 0
 284 37 286 31 302 31 c 0
 382 31 421 83 434 83 c 0
 440 83 444 78 444 73 c 0
 444 63 398 -6 296 -19 c 0
 284 -20 284 -19 284 -33 c 2
 284 -91 l 2
 284 -100 273 -102 262 -102 c 0
 256 -102 246 -100 246 -93 c 2
 246 -29 l 2
 246 -11 241 -28 186 -9 c 0
 106 18 56 88 56 192 c 0
130 224 m 0
 130 102 228 45 240 45 c 0
 243 45 246 48 246 60 c 0
 246 92 245 187 246 376 c 0
 246 390 246 390 230 390 c 0
 210 390 130 363 130 224 c 0
EndSplineSet
EndChar
StartChar: sterling
Encoding: 163 163 105
Width: 500
Flags: MW
LayerCount: 2
Back
Fore
SplineSet
18 43 m 0
 18 68 34 100 81 100 c 0
 116 100 149 79 155 79 c 0
 161 83 174 119 174 149 c 0
 174 207 136 292 129 311 c 0
 122 329 123 333 106 333 c 0
 94 333 75 332 32 332 c 0
 27 332 19 335 19 354 c 0
 19 373 24 375 31 375 c 2
 87 375 l 2
 101 375 103 376 103 377 c 0
 103 383 72 450 72 522 c 0
 72 663 168 719 257 719 c 0
 335 719 410 676 410 615 c 0
 410 592 383 565 370 565 c 0
 350 565 349 602 328 635 c 0
 312 665 276 683 240 683 c 0
 190 683 141 650 141 569 c 0
 141 500 167 437 183 396 c 0
 189 378 191 376 199 376 c 2
 335 376 l 2
 353 376 353 372 353 354 c 0
 353 339 352 333 333 333 c 2
 228 333 l 2
 220 333 209 332 209 329 c 0
 209 324 236 262 236 203 c 0
 236 129 199 73 196 67 c 1
 206 64 261 50 318 50 c 0
 439 50 456 151 471 151 c 0
 477 151 482 145 482 136 c 0
 482 102 449 -17 342 -17 c 0
 257 -17 170 24 163 27 c 0
 150 26 130 -11 73 -11 c 0
 36 -11 18 16 18 43 c 0
56 44 m 0
 56 32 69 17 88 17 c 0
 116 17 138 43 140 47 c 1
 136 52 106 63 83 63 c 0
 68 63 56 59 56 44 c 0
EndSplineSet
EndChar
StartChar: yen
Encoding: 165 165 60
Width: 500
Flags: MW
LayerCount: 2
Back
Fore
SplineSet
1 687 m 0
 1 703 8 705 38 705 c 0
 46 705 63 703 73 703 c 0
 87 703 132 704 149 704 c 0
 170 704 179 699 179 692 c 0
 179 671 154 676 154 657 c 0
 154 627 182 582 192 553 c 0
 215 487 239 406 244 406 c 2
 250 406 l 2
 260 406 272 434 305 494 c 0
 334 547 374 605 374 632 c 0
 374 692 329 659 329 693 c 0
 329 703 338 705 354 705 c 0
 364 705 375 704 389 704 c 0
 428 704 423 703 456 703 c 0
 480 703 499 702 499 688 c 0
 499 678 480 678 462 661 c 0
 424 626 383 554 345 485 c 2
 319 438 l 2
 309 420 301 413 301 409 c 0
 301 406 302 405 385 405 c 0
 390 405 396 398 396 381 c 0
 396 362 391 361 386 361 c 0
 298 361 308 360 289 360 c 0
 279 360 272 351 272 254 c 0
 272 243 272 241 278 241 c 0
 280 241 284 242 288 242 c 2
 376 242 l 2
 392 242 392 234 392 218 c 0
 392 205 392 196 374 196 c 0
 338 196 302 195 284 195 c 0
 273 195 272 194 272 182 c 0
 272 177 273 162 273 132 c 2
 273 109 l 2
 273 37 297 29 305 29 c 0
 307 29 315 25 317 25 c 0
 323 25 326 19 326 14 c 0
 326 0 320 -1 312 -1 c 0
 285 -1 262 0 241 0 c 0
 205 0 165 -5 154 -5 c 0
 138 -5 136 0 136 7 c 0
 136 27 147 21 159 27 c 0
 171 33 184 50 184 89 c 0
 184 97 186 146 186 182 c 0
 186 195 185 196 176 196 c 2
 138 196 l 2
 117 196 99 197 93 197 c 0
 89 197 84 203 84 220 c 0
 84 239 88 241 92 241 c 2
 105 241 l 1
 165 241 l 1
 174 241 l 2
 185 241 187 243 187 258 c 0
 187 265 186 274 186 292 c 0
 186 324 181 357 170 359 c 0
 168 359 165 360 161 360 c 2
 101 360 l 2
 87 360 86 368 86 384 c 0
 86 397 87 405 102 405 c 0
 157 405 157 406 157 408 c 0
 157 410 153 417 148 431 c 2
 89 576 l 2
 51 670 33 674 16 674 c 0
 11 674 1 674 1 687 c 0
EndSplineSet
EndChar
StartChar: dieresis
Encoding: 168 168 133
Width: 500
Flags: MW
LayerCount: 2
Back
Fore
SplineSet
122 591 m 0
 122 608 148 642 170 642 c 0
 193 642 218 611 218 591 c 0
 218 567 183 538 174 538 c 0
 145 538 122 575 122 591 c 0
282 591 m 0
 282 608 308 642 330 642 c 0
 353 642 378 611 378 591 c 0
 378 567 343 538 334 538 c 0
 305 538 282 575 282 591 c 0
EndSplineSet
EndChar
StartChar: logicalnot
Encoding: 172 172 129
Width: 500
Flags: MW
LayerCount: 2
Back
Fore
SplineSet
59 215 m 0
 59 232 67 232 74 232 c 2
 424 232 l 2
 438 232 441 230 441 213 c 2
 441 54 l 2
 441 44 438 39 425 39 c 0
 406 39 396 39 396 59 c 2
 396 170 l 2
 396 184 388 187 375 187 c 2
 74 187 l 2
 59 187 59 196 59 215 c 0
EndSplineSet
EndChar
StartChar: acute
Encoding: 180 180 132
Width: 500
Flags: MW
LayerCount: 2
Back
Fore
SplineSet
176 491 m 0
 176 505 199 518 251 643 c 0
 258 659 268 662 272 662 c 0
 276 662 324 657 324 636 c 0
 324 615 268 554 227 511 c 0
 212 495 196 480 188 480 c 0
 182 480 176 485 176 491 c 0
EndSplineSet
EndChar
StartChar: periodcentered
Encoding: 183 183 136
Width: 500
Flags: MW
LayerCount: 2
Back
Fore
SplineSet
202 333 m 0
 202 346 229 387 251 387 c 0
 274 387 298 350 298 330 c 0
 298 306 260 275 251 275 c 0
 222 275 202 317 202 333 c 0
EndSplineSet
EndChar
StartChar: onehalf
Encoding: 189 189 110
Width: 500
Flags: MW
LayerCount: 2
Back
Fore
SplineSet
26 585 m 0
 26 606 46 604 80 628 c 0
 96 639 103 654 110 654 c 0
 117 654 116 645 116 640 c 0
 116 635 117 617 117 610 c 0
 116 585 113 532 113 410 c 0
 113 349 111 312 111 291 c 0
 111 243 121 249 138 245 c 0
 141 244 143 241 143 231 c 0
 143 221 134 219 122 219 c 0
 110 219 99 220 84 220 c 0
 67 220 50 218 39 218 c 0
 32 218 27 221 27 230 c 0
 27 244 32 245 37 245 c 0
 47 245 52 246 53 269 c 0
 55 306 56 369 56 429 c 0
 56 548 57 537 57 549 c 0
 57 571 55 585 47 585 c 0
 40 585 37 573 30 573 c 0
 30 573 26 577 26 585 c 0
77 -73 m 0
 77 -57 308 577 315 622 c 0
 317 634 331 650 340 650 c 0
 347 650 358 642 358 637 c 0
 358 630 356 621 354 616 c 0
 123 -72 123 -79 111 -90 c 0
 109 -92 100 -92 98 -92 c 0
 90 -92 77 -83 77 -73 c 0
298 17 m 2
 298 19 l 2
 298 37 337 76 382 226 c 0
 389 260 394 301 394 336 c 0
 394 368 380 392 356 392 c 0
 320 392 310 356 303 356 c 0
 301 356 300 360 300 365 c 0
 300 372 326 444 386 444 c 0
 420 444 457 418 457 362 c 0
 457 257 350 85 350 74 c 0
 350 70 358 69 367 69 c 2
 376 69 l 2
 442 69 432 70 442 77 c 0
 454 85 463 108 469 108 c 0
 472 108 474 105 474 102 c 0
 474 97 440 22 440 22 c 2
 434 11 428 9 423 9 c 0
 381 9 380 11 363 11 c 0
 351 11 321 10 307 10 c 0
 298 10 298 13 298 17 c 2
EndSplineSet
EndChar
StartChar: questiondown
Encoding: 191 191 109
Width: 500
Flags: MW
LayerCount: 2
Back
Fore
SplineSet
131 105 m 0
 131 203 272 307 272 413 c 0
 272 432 266 449 266 459 c 0
 266 465 268 469 274 469 c 0
 296 469 306 412 306 390 c 0
 306 319 215 179 215 116 c 0
 215 57 281 36 306 36 c 0
 336 36 353 62 361 62 c 0
 367 62 369 55 369 52 c 0
 369 33 325 -9 266 -9 c 0
 200 -9 131 29 131 105 c 0
203 603 m 0
 203 620 227 627 238 638 c 0
 250 650 261 673 274 673 c 0
 283 673 305 653 315 640 c 0
 324 628 347 619 347 605 c 0
 347 596 327 577 312 564 c 0
 299 552 286 532 272 532 c 0
 262 532 242 563 238 567 c 0
 234 571 203 593 203 603 c 0
EndSplineSet
EndChar
StartChar: Adieresis
Encoding: 196 196 95
Width: 500
Flags: MW
LayerCount: 2
Back
Fore
SplineSet
9 8 m 0
 9 18 12 24 18 27 c 0
 54 49 51 69 236 701 c 0
 242 721 245 724 255 724 c 0
 268 724 259 722 299 563 c 0
 329 447 417 120 422 104 c 0
 454 3 491 49 491 13 c 0
 491 8 489 -2 469 -2 c 0
 450 -2 458 4 430 4 c 0
 394 4 417 0 377 0 c 0
 319 0 311 2 311 14 c 0
 311 36 342 23 342 61 c 0
 342 93 312 213 300 251 c 0
 297 259 296 268 276 268 c 0
 264 268 237 266 213 266 c 2
 192 266 l 2
 169 266 153 260 146 237 c 0
 125 161 108 109 108 81 c 0
 108 12 136 44 136 13 c 0
 136 5 135 -1 123 -1 c 0
 111 -1 96 0 70 0 c 0
 41 0 47 -4 31 -4 c 0
 18 -4 9 -2 9 8 c 0
175 338 m 0
 175 320 184 319 200 319 c 2
 212 319 l 2
 229 319 258 320 258 320 c 2
 274 320 282 325 282 336 c 0
 282 348 244 540 232 540 c 0
 224 540 175 350 175 338 c 0
122 818 m 0
 122 835 148 869 170 869 c 0
 193 869 218 838 218 818 c 0
 218 794 183 765 174 765 c 0
 145 765 122 802 122 818 c 0
282 818 m 0
 282 835 308 869 330 869 c 0
 353 869 378 838 378 818 c 0
 378 794 343 765 334 765 c 0
 305 765 282 802 282 818 c 0
EndSplineSet
EndChar
StartChar: Ccedilla
Encoding: 199 199 101
Width: 500
Flags: MW
LayerCount: 2
Back
Fore
SplineSet
24 323 m 0
 24 536 110 714 272 714 c 0
 362 714 436 640 442 640 c 0
 447 640 451 650 456 650 c 0
 460 650 466 645 466 634 c 0
 467 568 474 506 474 494 c 0
 474 478 470 476 468 476 c 0
 464 476 460 483 458 490 c 0
 423 599 366 672 288 672 c 0
 189 672 118 556 118 383 c 0
 118 202 172 26 318 26 c 0
 392 26 438 115 462 176 c 0
 464 183 468 183 472 183 c 0
 476 183 476 176 476 169 c 0
 476 145 469 91 466 70 c 0
 465 61 459 56 454 52 c 0
 397 10 354 -21 286 -21 c 0
 88 -21 24 166 24 323 c 0
220 -79 m 4
 220 -75 229 -69 240 -61 c 4
 249 -55 257 -44 270 -44 c 4
 276 -44 322 -60 322 -105 c 4
 322 -172 253 -201 238 -201 c 4
 232 -201 230 -196 230 -194 c 4
 230 -184 272 -180 272 -139 c 4
 272 -95 220 -99 220 -79 c 4
EndSplineSet
EndChar
StartChar: Ntilde
Encoding: 209 209 102
Width: 500
Flags: MW
LayerCount: 2
Back
Fore
SplineSet
8 690 m 0
 8 697 15 708 24 708 c 0
 31 708 42 707 48 707 c 0
 65 707 84 709 96 709 c 0
 104 709 119 699 124 692 c 0
 130 684 153 653 174 618 c 0
 249 493 329 342 368 274 c 0
 386 243 392 229 396 229 c 0
 402 229 402 259 402 291 c 2
 402 371 l 2
 402 431 400 508 400 529 c 2
 400 536 l 2
 400 676 369 662 344 675 c 0
 336 679 332 687 332 693 c 0
 332 701 333 708 344 708 c 0
 352 708 402 707 410 707 c 0
 439 707 457 709 470 709 c 0
 485 709 492 706 492 692 c 0
 492 681 471 672 470 671 c 0
 465 666 450 642 450 558 c 2
 450 520 l 2
 450 379 444 124 444 25 c 2
 444 5 l 2
 444 -8 442 -18 434 -18 c 0
 430 -18 426 -14 424 -11 c 0
 141 502 132 533 126 533 c 0
 122 533 120 393 120 352 c 0
 120 282 112 175 112 127 c 0
 112 -5 174 45 174 12 c 0
 174 -4 169 -5 162 -5 c 0
 142 -5 149 -3 90 -3 c 0
 76 -3 58 -5 34 -5 c 0
 25 -5 18 -4 18 11 c 0
 18 37 50 5 64 87 c 0
 69 120 78 425 78 498 c 0
 78 568 67 654 16 675 c 0
 9 678 8 685 8 690 c 0
115 761 m 0
 115 777 167 867 212 867 c 0
 261 867 288 819 337 819 c 0
 370 819 390 875 399 875 c 0
 403 875 409 873 409 863 c 0
 409 845 358 761 313 761 c 0
 263 761 231 809 187 809 c 0
 152 809 134 753 125 753 c 0
 121 753 115 754 115 761 c 0
EndSplineSet
EndChar
StartChar: Odieresis
Encoding: 214 214 111
Width: 500
Flags: MW
LayerCount: 2
Back
Fore
SplineSet
16 338 m 0
 16 553 97 722 253 722 c 0
 438 722 484 494 484 392 c 0
 484 111 378 -17 244 -17 c 0
 92 -17 16 158 16 338 c 0
104 389 m 0
 104 262 150 28 263 28 c 0
 319 28 402 116 402 300 c 0
 402 552 325 681 237 681 c 0
 170 681 104 593 104 389 c 0
122 818 m 4
 122 835 148 869 170 869 c 4
 193 869 218 838 218 818 c 4
 218 794 183 765 174 765 c 4
 145 765 122 802 122 818 c 4
282 818 m 4
 282 835 308 869 330 869 c 4
 353 869 378 838 378 818 c 4
 378 794 343 765 334 765 c 4
 305 765 282 802 282 818 c 4
EndSplineSet
EndChar
StartChar: germandbls
Encoding: 223 223 99
Width: 500
Flags: MW
LayerCount: 2
Back
Fore
SplineSet
18 7 m 0
 18 30 68 4 68 74 c 2
 68 367 l 2
 68 371 38 389 38 399 c 0
 38 419 68 408 68 423 c 0
 68 590 145 722 260 722 c 0
 309 722 386 704 386 600 c 0
 386 480 271 433 271 367 c 0
 271 277 466 249 466 118 c 0
 466 82 448 -15 344 -15 c 0
 294 -15 260 5 246 10 c 0
 223 18 211 17 211 42 c 2
 211 129 l 2
 211 144 219 155 226 155 c 0
 247 155 243 135 252 112 c 0
 261 87 283 11 342 11 c 0
 371 11 412 32 412 89 c 0
 412 182 217 209 217 333 c 0
 217 423 324 466 324 595 c 0
 324 664 289 697 251 697 c 0
 206 697 139 659 139 432 c 0
 139 422 141 383 141 370 c 0
 141 349 136 269 136 167 c 2
 136 97 l 2
 136 43 145 27 170 20 c 0
 184 16 190 10 190 3 c 0
 190 -1 181 -6 172 -6 c 0
 169 -6 134 -2 112 -2 c 0
 84 -2 41 -5 33 -5 c 0
 22 -5 18 -1 18 7 c 0
EndSplineSet
EndChar
StartChar: adieresis
Encoding: 228 228 113
Width: 500
Flags: MW
LayerCount: 2
Back
Fore
SplineSet
165 561 m 0
 165 578 190 612 212 612 c 0
 235 612 260 581 260 561 c 0
 260 537 226 508 217 508 c 0
 188 508 165 545 165 561 c 0
325 561 m 0
 325 578 350 612 372 612 c 0
 395 612 420 581 420 561 c 0
 420 537 385 508 376 508 c 0
 347 508 325 545 325 561 c 0
107 85 m 0
 107 193 212 203 337 225 c 0
 348 227 354 228 354 241 c 0
 354 261 356 277 356 293 c 0
 356 380 287 401 259 401 c 0
 196 401 187 366 187 341 c 0
 187 326 191 314 191 305 c 0
 191 288 184 285 173 285 c 0
 161 285 111 290 111 324 c 0
 111 375 193 434 279 434 c 0
 429 434 429 346 429 308 c 0
 429 178 424 197 424 122 c 0
 424 -11 500 49 500 13 c 0
 500 -2 479 -8 437 -8 c 0
 379 -8 362 47 357 47 c 0
 353 47 297 -15 225 -15 c 0
 182 -15 155 -9 132 15 c 0
 114 33 107 58 107 85 c 0
185 100 m 0
 185 55 212 25 262 25 c 0
 354 25 354 94 354 127 c 2
 354 199 l 2
 354 205 351 208 347 208 c 0
 344 208 340 206 337 206 c 0
 273 195 185 183 185 100 c 0
EndSplineSet
EndChar
StartChar: ccedilla
Encoding: 231 231 100
Width: 500
Flags: MW
LayerCount: 2
Back
Fore
SplineSet
220 -79 m 0
 220 -75 229 -69 240 -61 c 0
 249 -55 257 -44 270 -44 c 0
 276 -44 322 -60 322 -105 c 0
 322 -172 253 -201 238 -201 c 0
 232 -201 230 -196 230 -194 c 0
 230 -184 272 -180 272 -139 c 0
 272 -95 220 -99 220 -79 c 0
56 192 m 0
 56 314 146 429 288 429 c 0
 329 429 402 415 404 396 c 0
 405 384 406 366 406 349 c 0
 406 326 404 305 396 305 c 0
 382 305 379 323 362 337 c 0
 339 357 283 390 230 390 c 0
 210 390 131 363 131 224 c 0
 131 122 205 31 302 31 c 0
 382 31 421 83 434 83 c 0
 440 83 444 78 444 73 c 0
 444 64 391 -21 262 -21 c 0
 138 -21 56 58 56 192 c 0
EndSplineSet
EndChar
StartChar: egrave
Encoding: 232 232 124
Width: 500
Flags: MW
LayerCount: 2
Back
Fore
SplineSet
139 636 m 0
 139 657 188 662 192 662 c 0
 196 662 205 659 212 643 c 0
 264 518 288 505 288 491 c 0
 288 485 282 480 276 480 c 0
 268 480 252 495 237 511 c 0
 196 554 139 615 139 636 c 0
56 194 m 0
 56 324 137 432 259 432 c 0
 409 432 443 288 443 273 c 0
 443 259 430 255 402 255 c 2
 175 255 l 1
 145 255 l 2
 134 255 134 254 134 244 c 0
 134 111 220 42 303 42 c 0
 374 42 417 87 434 87 c 0
 439 87 444 82 444 78 c 0
 444 67 384 -19 267 -19 c 0
 160 -19 56 45 56 194 c 0
140 293 m 0
 140 284 142 279 153 279 c 0
 199 279 312 285 329 285 c 0
 348 285 350 288 350 297 c 0
 350 323 321 407 242 407 c 0
 170 407 140 328 140 293 c 0
EndSplineSet
EndChar
StartChar: iacute
Encoding: 237 237 98
Width: 500
Flags: MW
LayerCount: 2
Back
Fore
SplineSet
187 491 m 0
 187 505 210 518 262 643 c 0
 269 659 279 662 283 662 c 0
 287 662 335 657 335 636 c 0
 335 615 279 554 238 511 c 0
 223 495 207 480 199 480 c 0
 193 480 187 485 187 491 c 0
137 381 m 4
 137 397 162 398 218 421 c 4
 254 436 252 439 268 439 c 4
 274 439 283 434 283 420 c 4
 283 408 277 389 277 372 c 6
 277 98 l 6
 277 33 308 27 333 25 c 4
 350 24 363 24 363 10 c 4
 363 4 362 -7 346 -7 c 4
 342 -7 336 -6 331 -6 c 4
 289 -6 298 -4 260 -4 c 4
 218 -4 206 -6 189 -6 c 4
 164 -6 149 -3 149 7 c 4
 149 14 155 23 164 26 c 4
 203 39 205 33 205 206 c 6
 205 294 l 6
 205 377 169 363 147 371 c 4
 142 373 137 377 137 381 c 4
EndSplineSet
EndChar
StartChar: icircumflex
Encoding: 238 238 120
Width: 500
Flags: MW
LayerCount: 2
Back
Fore
SplineSet
125 499 m 0
 125 501 127 504 129 508 c 0
 216 635 206 648 223 648 c 2
 248 648 l 2
 254 648 259 648 265 637 c 0
 303 569 351 510 351 500 c 0
 351 492 343 492 340 492 c 0
 327 492 244 577 237 577 c 0
 224 577 149 493 135 493 c 0
 132 493 125 494 125 499 c 0
137 381 m 4
 137 397 162 398 218 421 c 4
 254 436 252 439 268 439 c 4
 274 439 283 434 283 420 c 4
 283 408 277 389 277 372 c 6
 277 98 l 6
 277 33 308 27 333 25 c 4
 350 24 363 24 363 10 c 4
 363 4 362 -7 346 -7 c 4
 342 -7 336 -6 331 -6 c 4
 289 -6 298 -4 260 -4 c 4
 218 -4 206 -6 189 -6 c 4
 164 -6 149 -3 149 7 c 4
 149 14 155 23 164 26 c 4
 203 39 205 33 205 206 c 6
 205 294 l 6
 205 377 169 363 147 371 c 4
 142 373 137 377 137 381 c 4
EndSplineSet
EndChar
StartChar: idieresis
Encoding: 239 239 115
Width: 500
Flags: MW
LayerCount: 2
Back
Fore
SplineSet
122 561 m 0
 122 578 148 612 170 612 c 0
 193 612 217 581 217 561 c 0
 217 537 183 508 174 508 c 0
 145 508 122 545 122 561 c 0
282 561 m 0
 282 578 308 612 330 612 c 0
 353 612 377 581 377 561 c 0
 377 537 343 508 334 508 c 0
 305 508 282 545 282 561 c 0
137 381 m 0
 137 397 162 398 218 421 c 0
 254 436 252 439 268 439 c 0
 274 439 283 434 283 420 c 0
 283 408 277 389 277 372 c 2
 277 98 l 2
 277 33 308 27 333 25 c 0
 350 24 363 24 363 10 c 0
 363 4 362 -7 346 -7 c 0
 342 -7 336 -6 331 -6 c 0
 289 -6 298 -4 260 -4 c 0
 218 -4 206 -6 189 -6 c 0
 164 -6 149 -3 149 7 c 0
 149 14 155 23 164 26 c 0
 203 39 205 33 205 206 c 2
 205 294 l 2
 205 377 169 363 147 371 c 0
 142 373 137 377 137 381 c 0
EndSplineSet
EndChar
StartChar: ntilde
Encoding: 241 241 103
Width: 500
Flags: MW
LayerCount: 2
Back
Fore
SplineSet
104 530 m 0
 104 546 156 636 201 636 c 0
 250 636 277 588 326 588 c 0
 359 588 379 644 388 644 c 0
 392 644 398 642 398 632 c 0
 398 614 347 530 302 530 c 0
 252 530 220 578 176 578 c 0
 141 578 123 522 114 522 c 0
 110 522 104 523 104 530 c 0
25 390 m 0
 25 403 48 402 68 408 c 0
 107 420 139 442 148 442 c 2
 150 442 l 2
 156 442 158 437 158 430 c 0
 158 423 156 403 156 387 c 0
 156 369 157 361 160 361 c 0
 166 361 170 380 200 402 c 0
 220 417 246 430 273 430 c 0
 393 430 419 315 419 262 c 0
 419 245 420 262 420 119 c 2
 420 97 l 2
 420 51 423 33 469 24 c 0
 483 21 485 17 485 9 c 0
 485 1 476 -1 467 -1 c 0
 431 -1 415 4 396 4 c 0
 374 4 339 0 329 0 c 0
 318 0 311 5 311 13 c 0
 311 27 329 27 331 28 c 0
 347 34 349 68 349 95 c 2
 349 230 l 2
 349 341 296 386 246 386 c 0
 193 386 159 337 156 325 c 0
 152 311 149 200 149 167 c 2
 149 129 l 2
 149 71 152 32 194 28 c 0
 199 28 227 25 227 13 c 0
 227 2 219 0 211 0 c 0
 179 0 188 4 148 4 c 0
 111 4 59 0 51 0 c 0
 41 0 38 4 38 10 c 0
 38 41 78 -13 81 106 c 0
 83 162 83 152 83 181 c 2
 83 325 l 2
 83 372 67 379 48 379 c 2
 40 379 l 2
 29 379 25 383 25 390 c 0
EndSplineSet
EndChar
StartChar: oacute
Encoding: 243 243 106
Width: 500
Flags: MW
LayerCount: 2
Back
Fore
SplineSet
199 490 m 0
 199 504 222 517 274 643 c 0
 281 659 291 662 295 662 c 0
 299 662 347 657 347 636 c 0
 347 615 291 553 250 510 c 0
 235 494 219 479 211 479 c 0
 205 479 199 484 199 490 c 0
32 202 m 0
 32 315 106 431 252 431 c 0
 361 431 468 355 468 209 c 0
 468 59 357 -19 245 -19 c 0
 103 -19 32 91 32 202 c 0
111 236 m 0
 111 90 196 12 272 12 c 0
 336 12 393 66 393 179 c 0
 393 285 340 403 230 403 c 0
 178 403 111 360 111 236 c 0
EndSplineSet
EndChar
StartChar: ocircumflex
Encoding: 244 244 121
Width: 500
Flags: MW
LayerCount: 2
Back
Fore
SplineSet
132 499 m 0
 132 501 134 504 136 508 c 0
 223 635 213 648 230 648 c 2
 256 648 l 2
 262 648 266 648 272 637 c 0
 310 569 358 510 358 500 c 0
 358 492 351 492 348 492 c 0
 335 492 251 576 244 576 c 0
 231 576 156 493 142 493 c 0
 139 493 132 494 132 499 c 0
24 202 m 0
 24 315 101 431 252 431 c 0
 365 431 476 355 476 209 c 0
 476 59 359 -19 244 -19 c 0
 97 -19 24 91 24 202 c 0
104 236 m 0
 104 90 194 12 274 12 c 0
 341 12 400 66 400 179 c 0
 400 285 346 403 230 403 c 0
 175 403 104 360 104 236 c 0
EndSplineSet
EndChar
StartChar: odieresis
Encoding: 246 246 116
Width: 500
Flags: MW
LayerCount: 2
Back
Fore
SplineSet
133 561 m 0
 133 578 158 612 180 612 c 0
 203 612 228 581 228 561 c 0
 228 537 194 507 185 507 c 0
 156 507 133 545 133 561 c 0
280 561 m 0
 280 578 305 612 327 612 c 0
 350 612 375 581 375 561 c 0
 375 537 340 507 331 507 c 0
 302 507 280 545 280 561 c 0
28 202 m 0
 28 315 103 431 252 431 c 0
 363 431 472 355 472 209 c 0
 472 59 359 -19 245 -19 c 0
 100 -19 28 91 28 202 c 0
107 236 m 0
 107 90 195 12 273 12 c 0
 338 12 397 66 397 179 c 0
 397 285 343 403 230 403 c 0
 177 403 107 360 107 236 c 0
EndSplineSet
EndChar
StartChar: ugrave
Encoding: 249 249 96
Width: 500
Flags: MW
LayerCount: 2
Back
Fore
SplineSet
153 636 m 0
 153 657 202 662 206 662 c 0
 210 662 219 659 226 643 c 0
 278 517 302 504 302 490 c 0
 302 484 296 479 290 479 c 0
 282 479 266 494 251 510 c 0
 210 553 153 615 153 636 c 0
25 393 m 0
 25 406 33 416 86 416 c 0
 98 416 133 421 138 421 c 0
 159 421 159 418 159 371 c 0
 159 318 154 300 154 195 c 0
 154 63 208 34 243 34 c 0
 309 34 340 63 340 156 c 2
 338 293 l 2
 338 355 337 377 318 381 c 0
 313 382 309 386 309 394 c 0
 309 408 323 418 373 418 c 0
 384 418 393 423 400 423 c 0
 415 423 417 418 417 395 c 0
 417 389 413 276 413 140 c 0
 413 60 418 35 435 35 c 0
 442 35 450 36 456 36 c 0
 467 36 475 33 475 23 c 0
 475 7 467 6 443 6 c 0
 417 6 365 -6 356 -6 c 0
 345 -6 346 46 341 46 c 0
 334 46 294 -19 216 -19 c 0
 130 -19 77 33 77 155 c 0
 77 317 78 299 78 335 c 0
 78 365 62 379 54 379 c 2
 40 379 l 2
 31 379 25 382 25 393 c 0
EndSplineSet
EndChar
StartChar: uacute
Encoding: 250 250 107
Width: 500
Flags: MW
LayerCount: 2
Back
Fore
SplineSet
196 490 m 0
 196 504 219 517 271 643 c 0
 278 659 288 662 292 662 c 0
 296 662 344 657 344 636 c 0
 344 615 288 553 247 510 c 0
 232 494 216 479 208 479 c 0
 202 479 196 484 196 490 c 0
10 393 m 0
 10 406 18 416 71 416 c 0
 83 416 118 421 123 421 c 0
 144 421 144 418 144 371 c 0
 144 318 139 300 139 195 c 0
 139 63 201 34 242 34 c 0
 319 34 355 63 355 156 c 2
 353 293 l 2
 353 355 350 377 309 381 c 0
 298 382 288 386 288 394 c 0
 288 408 308 418 374 418 c 0
 389 418 400 423 409 423 c 0
 429 423 432 418 432 395 c 0
 432 389 428 276 428 140 c 0
 428 60 433 35 450 35 c 0
 457 35 465 36 471 36 c 0
 482 36 490 33 490 23 c 0
 490 7 482 6 456 6 c 0
 428 6 371 -6 362 -6 c 0
 350 -6 351 46 345 46 c 0
 338 46 296 -19 212 -19 c 0
 119 -19 62 33 62 155 c 0
 62 317 63 299 63 335 c 0
 63 365 47 379 39 379 c 2
 25 379 l 2
 16 379 10 382 10 393 c 0
EndSplineSet
EndChar
StartChar: ucircumflex
Encoding: 251 251 122
Width: 500
Flags: MW
LayerCount: 2
Back
Fore
SplineSet
128 499 m 0
 128 501 130 504 132 508 c 0
 219 635 209 648 226 648 c 2
 252 648 l 2
 258 648 262 648 268 637 c 0
 306 569 354 510 354 500 c 0
 354 492 347 492 344 492 c 0
 331 492 247 576 240 576 c 0
 227 576 152 493 138 493 c 0
 135 493 128 494 128 499 c 0
2 393 m 0
 2 406 11 416 64 416 c 0
 76 416 111 421 116 421 c 0
 137 421 136 418 136 371 c 0
 136 318 132 300 132 195 c 0
 132 63 198 34 242 34 c 0
 324 34 362 63 362 156 c 2
 360 293 l 2
 360 355 358 377 316 381 c 0
 305 382 294 386 294 394 c 0
 294 408 313 418 380 418 c 0
 395 418 407 423 416 423 c 0
 437 423 440 418 440 395 c 0
 440 389 436 276 436 140 c 0
 436 60 441 35 458 35 c 0
 465 35 472 36 478 36 c 0
 489 36 498 33 498 23 c 0
 498 7 489 6 462 6 c 0
 433 6 376 -6 366 -6 c 0
 354 -6 354 46 348 46 c 0
 340 46 296 -19 210 -19 c 0
 114 -19 54 33 54 155 c 0
 54 317 56 299 56 335 c 0
 56 365 40 379 32 379 c 2
 18 379 l 2
 9 379 2 382 2 393 c 0
EndSplineSet
EndChar
StartChar: udieresis
Encoding: 252 252 117
Width: 500
Flags: MW
LayerCount: 2
Back
Fore
SplineSet
130 561 m 0
 130 578 155 612 177 612 c 0
 200 612 225 581 225 561 c 0
 225 537 191 507 182 507 c 0
 153 507 130 545 130 561 c 0
277 561 m 0
 277 578 302 612 324 612 c 0
 347 612 372 581 372 561 c 0
 372 537 337 507 328 507 c 0
 299 507 277 545 277 561 c 0
8 393 m 0
 8 406 16 416 69 416 c 0
 81 416 116 421 121 421 c 0
 142 421 142 418 142 371 c 0
 142 318 137 300 137 195 c 0
 137 63 200 34 242 34 c 0
 320 34 357 63 357 156 c 2
 355 293 l 2
 355 355 352 377 309 381 c 0
 298 382 287 386 287 394 c 0
 287 408 307 418 375 418 c 0
 390 418 401 423 410 423 c 0
 431 423 434 418 434 395 c 0
 434 389 430 276 430 140 c 0
 430 60 435 35 452 35 c 0
 459 35 467 36 473 36 c 0
 484 36 492 33 492 23 c 0
 492 7 484 6 458 6 c 0
 430 6 372 -6 363 -6 c 0
 351 -6 352 46 346 46 c 0
 339 46 295 -19 211 -19 c 0
 117 -19 60 33 60 155 c 0
 60 317 61 299 61 335 c 0
 61 365 45 379 37 379 c 2
 23 379 l 2
 14 379 8 382 8 393 c 0
EndSplineSet
EndChar
StartChar: quoteleft
Encoding: 8216 8216 135
Width: 1000
Flags: MW
LayerCount: 2
Back
Fore
SplineSet
834 539 m 0
 834 661 922 713 942 713 c 0
 950 713 955 704 955 701 c 0
 955 682 899 675 899 600 c 0
 899 520 968 527 968 491 c 0
 968 483 955 472 941 458 c 0
 929 446 919 427 901 427 c 0
 893 427 834 457 834 539 c 0
EndSplineSet
EndChar
StartChar: quotedblleft
Encoding: 8220 8220 134
Width: 1000
Flags: MW
LayerCount: 2
Back
Fore
SplineSet
638 539 m 0
 638 661 727 713 747 713 c 0
 755 713 760 704 760 701 c 0
 760 682 704 675 704 600 c 0
 704 520 773 527 773 491 c 0
 773 483 760 472 746 458 c 0
 734 446 724 427 706 427 c 0
 698 427 638 457 638 539 c 0
834 539 m 0
 834 661 922 713 942 713 c 0
 950 713 955 704 955 701 c 0
 955 682 899 675 899 600 c 0
 899 520 968 527 968 491 c 0
 968 483 955 472 941 458 c 0
 929 446 919 427 901 427 c 0
 893 427 834 457 834 539 c 0
EndSplineSet
EndChar
StartChar: overline
Encoding: 8254 8254 94
Width: 500
Flags: MW
LayerCount: 2
Back
Fore
SplineSet
0 708 m 0
 0 721 1 729 19 729 c 2
 484 729 l 2
 500 729 500 722 500 708 c 0
 500 691 500 684 479 684 c 2
 18 684 l 2
 0 684 0 691 0 708 c 0
EndSplineSet
EndChar
StartChar: celsius
Encoding: 8451 8451 137
Width: 500
Flags: MW
LayerCount: 2
Back
Fore
SplineSet
12 611 m 0
 12 653 38 713 78 713 c 0
 125 713 142 642 142 605 c 0
 142 532 89 503 77 503 c 0
 19 503 12 581 12 611 c 0
54 609 m 0
 54 572 63 548 77 548 c 0
 81 548 100 558 100 608 c 0
 100 630 96 668 77 668 c 0
 66 668 54 643 54 609 c 0
128 323 m 0
 128 536 192 714 311 714 c 0
 377 714 431 640 435 640 c 0
 438 640 441 650 445 650 c 0
 448 650 453 645 453 634 c 0
 454 568 459 506 459 494 c 0
 459 478 457 476 455 476 c 0
 453 476 450 483 448 490 c 0
 425 599 388 672 336 672 c 0
 270 672 206 556 206 383 c 0
 206 202 258 26 355 26 c 0
 405 26 435 115 451 176 c 0
 453 183 454 183 457 183 c 0
 459 183 461 176 461 169 c 0
 461 145 454 91 452 70 c 0
 451 61 449 56 445 52 c 0
 403 10 370 -21 320 -21 c 0
 175 -21 128 166 128 323 c 0
EndSplineSet
EndChar
StartChar: minus
Encoding: 8722 8722 131
Width: 500
Flags: MW
LayerCount: 2
Back
Fore
SplineSet
64 212 m 0
 64 225 65 232 79 232 c 2
 424 232 l 2
 437 232 436 225 436 211 c 0
 436 194 437 187 420 187 c 2
 78 187 l 2
 60 187 64 195 64 212 c 0
EndSplineSet
EndChar
StartChar: triagup
Encoding: 9650 9650 128
Width: 500
Flags: MW
LayerCount: 2
Back
Fore
SplineSet
486 9 m 1
 15 9 l 1
 250 590 l 1
 486 9 l 1
EndSplineSet
Colour: ffff00
EndChar
StartChar: zero.slash
Encoding: 63032 63032 127
Width: 500
Flags: MW
LayerCount: 2
Back
Fore
SplineSet
28 323 m 0
 28 566 139 712 266 712 c 0
 299 712 327 703 352 687 c 1
 359 705 362 716 362 717 c 0
 367 732 374 735 392 735 c 0
 401 735 412 733 412 723 c 0
 412 714 403 692 398 679 c 2
 390 654 l 1
 445 591 472 483 472 362 c 0
 472 161 397 -14 246 -14 c 0
 210 -14 180 -6 154 7 c 1
 144 -17 l 1
 144 -17 127 -48 112 -48 c 0
 100 -48 86 -48 86 -35 c 0
 86 -26 98 0 106 22 c 24
 108 28 108 28 112 38 c 1
 50 100 28 210 28 323 c 0
88 390 m 0
 88 298 108 199 144 128 c 1
 193 260 276 483 324 613 c 1
 300 637 270 652 236 652 c 0
 132 652 88 528 88 390 c 0
178 77 m 1
 204 46 236 27 272 27 c 0
 369 27 416 165 416 311 c 0
 416 405 397 501 358 568 c 1
 178 77 l 1
EndSplineSet
EndChar
